<svg xmlns="http://www.w3.org/2000/svg" xmlns:xlink="http://www.w3.org/1999/xlink" xmlns:lucid="lucid" width="1303.88" height="1001.71"><g transform="translate(-283.26171657725297 -60)" lucid:page-tab-id="Zy7UWzC~z.Lc"><path d="M303.26 180h1254.2v843.72H303.25z" fill="#fff"/><path d="M305.76 180c0 1.38-1.12 2.5-2.5 2.5s-2.5-1.12-2.5-2.5 1.12-2.5 2.5-2.5 2.5 1.12 2.5 2.5zm19.9 0c0 1.38-1.1 2.5-2.5 2.5-1.37 0-2.5-1.12-2.5-2.5s1.13-2.5 2.5-2.5c1.4 0 2.5 1.12 2.5 2.5zm19.92 0c0 1.38-1.12 2.5-2.5 2.5s-2.5-1.12-2.5-2.5 1.12-2.5 2.5-2.5 2.5 1.12 2.5 2.5zm19.9 0c0 1.38-1.1 2.5-2.5 2.5-1.38 0-2.5-1.12-2.5-2.5s1.12-2.5 2.5-2.5c1.4 0 2.5 1.12 2.5 2.5zm19.9 0c0 1.38-1.1 2.5-2.5 2.5-1.37 0-2.5-1.12-2.5-2.5s1.13-2.5 2.5-2.5c1.4 0 2.5 1.12 2.5 2.5zm19.92 0c0 1.38-1.12 2.5-2.5 2.5s-2.5-1.12-2.5-2.5 1.12-2.5 2.5-2.5 2.5 1.12 2.5 2.5zm19.9 0c0 1.38-1.1 2.5-2.5 2.5-1.37 0-2.5-1.12-2.5-2.5s1.13-2.5 2.5-2.5c1.4 0 2.5 1.12 2.5 2.5zm19.92 0c0 1.38-1.12 2.5-2.5 2.5-1.4 0-2.5-1.12-2.5-2.5s1.1-2.5 2.5-2.5c1.38 0 2.5 1.12 2.5 2.5zm19.9 0c0 1.38-1.12 2.5-2.5 2.5s-2.5-1.12-2.5-2.5 1.12-2.5 2.5-2.5 2.5 1.12 2.5 2.5zm19.9 0c0 1.38-1.1 2.5-2.5 2.5-1.37 0-2.5-1.12-2.5-2.5s1.13-2.5 2.5-2.5c1.4 0 2.5 1.12 2.5 2.5zm19.92 0c0 1.38-1.12 2.5-2.5 2.5s-2.5-1.12-2.5-2.5 1.12-2.5 2.5-2.5 2.5 1.12 2.5 2.5zm19.9 0c0 1.38-1.1 2.5-2.5 2.5-1.37 0-2.5-1.12-2.5-2.5s1.13-2.5 2.5-2.5c1.4 0 2.5 1.12 2.5 2.5zm19.9 0c0 1.38-1.1 2.5-2.5 2.5-1.37 0-2.5-1.12-2.5-2.5s1.13-2.5 2.5-2.5c1.4 0 2.5 1.12 2.5 2.5zm19.92 0c0 1.38-1.12 2.5-2.5 2.5s-2.5-1.12-2.5-2.5 1.12-2.5 2.5-2.5 2.5 1.12 2.5 2.5zm19.9 0c0 1.38-1.1 2.5-2.5 2.5-1.37 0-2.5-1.12-2.5-2.5s1.13-2.5 2.5-2.5c1.4 0 2.5 1.12 2.5 2.5zm19.92 0c0 1.38-1.12 2.5-2.5 2.5s-2.5-1.12-2.5-2.5 1.12-2.5 2.5-2.5 2.5 1.12 2.5 2.5zm19.9 0c0 1.38-1.1 2.5-2.5 2.5-1.38 0-2.5-1.12-2.5-2.5s1.12-2.5 2.5-2.5c1.4 0 2.5 1.12 2.5 2.5zm19.9 0c0 1.38-1.1 2.5-2.5 2.5-1.37 0-2.5-1.12-2.5-2.5s1.13-2.5 2.5-2.5c1.4 0 2.5 1.12 2.5 2.5zm19.92 0c0 1.38-1.12 2.5-2.5 2.5s-2.5-1.12-2.5-2.5 1.12-2.5 2.5-2.5 2.5 1.12 2.5 2.5zm19.9 0c0 1.38-1.1 2.5-2.5 2.5-1.37 0-2.5-1.12-2.5-2.5s1.13-2.5 2.5-2.5c1.4 0 2.5 1.12 2.5 2.5zm19.92 0c0 1.38-1.12 2.5-2.5 2.5-1.4 0-2.5-1.12-2.5-2.5s1.1-2.5 2.5-2.5c1.38 0 2.5 1.12 2.5 2.5zm19.9 0c0 1.38-1.12 2.5-2.5 2.5s-2.5-1.12-2.5-2.5 1.12-2.5 2.5-2.5 2.5 1.12 2.5 2.5zm19.9 0c0 1.38-1.1 2.5-2.5 2.5-1.37 0-2.5-1.12-2.5-2.5s1.13-2.5 2.5-2.5c1.4 0 2.5 1.12 2.5 2.5zm19.92 0c0 1.38-1.12 2.5-2.5 2.5s-2.5-1.12-2.5-2.5 1.12-2.5 2.5-2.5 2.5 1.12 2.5 2.5zm19.9 0c0 1.38-1.1 2.5-2.5 2.5-1.37 0-2.5-1.12-2.5-2.5s1.13-2.5 2.5-2.5c1.4 0 2.5 1.12 2.5 2.5zm19.9 0c0 1.38-1.1 2.5-2.5 2.5-1.37 0-2.5-1.12-2.5-2.5s1.13-2.5 2.5-2.5c1.4 0 2.5 1.12 2.5 2.5zm19.92 0c0 1.38-1.12 2.5-2.5 2.5s-2.5-1.12-2.5-2.5 1.12-2.5 2.5-2.5 2.5 1.12 2.5 2.5zm19.9 0c0 1.38-1.1 2.5-2.5 2.5-1.37 0-2.5-1.12-2.5-2.5s1.13-2.5 2.5-2.5c1.4 0 2.5 1.12 2.5 2.5zm19.92 0c0 1.38-1.12 2.5-2.5 2.5s-2.5-1.12-2.5-2.5 1.12-2.5 2.5-2.5 2.5 1.12 2.5 2.5zm19.9 0c0 1.38-1.1 2.5-2.5 2.5-1.38 0-2.5-1.12-2.5-2.5s1.12-2.5 2.5-2.5c1.4 0 2.5 1.12 2.5 2.5zm19.9 0c0 1.38-1.1 2.5-2.5 2.5-1.37 0-2.5-1.12-2.5-2.5s1.13-2.5 2.5-2.5c1.4 0 2.5 1.12 2.5 2.5zm19.92 0c0 1.38-1.12 2.5-2.5 2.5s-2.5-1.12-2.5-2.5 1.12-2.5 2.5-2.5 2.5 1.12 2.5 2.5zm19.9 0c0 1.38-1.1 2.5-2.5 2.5-1.37 0-2.5-1.12-2.5-2.5s1.13-2.5 2.5-2.5c1.4 0 2.5 1.12 2.5 2.5zm19.92 0c0 1.38-1.12 2.5-2.5 2.5-1.4 0-2.5-1.12-2.5-2.5s1.1-2.5 2.5-2.5c1.38 0 2.5 1.12 2.5 2.5zm19.9 0c0 1.38-1.12 2.5-2.5 2.5s-2.5-1.12-2.5-2.5 1.12-2.5 2.5-2.5 2.5 1.12 2.5 2.5zm19.9 0c0 1.38-1.1 2.5-2.5 2.5-1.37 0-2.5-1.12-2.5-2.5s1.13-2.5 2.5-2.5c1.4 0 2.5 1.12 2.5 2.5zm19.92 0c0 1.38-1.12 2.5-2.5 2.5s-2.5-1.12-2.5-2.5 1.12-2.5 2.5-2.5 2.5 1.12 2.5 2.5zm19.9 0c0 1.38-1.1 2.5-2.5 2.5-1.37 0-2.5-1.12-2.5-2.5s1.13-2.5 2.5-2.5c1.4 0 2.5 1.12 2.5 2.5zm19.9 0c0 1.38-1.1 2.5-2.5 2.5-1.37 0-2.5-1.12-2.5-2.5s1.13-2.5 2.5-2.5c1.4 0 2.5 1.12 2.5 2.5zm19.92 0c0 1.38-1.12 2.5-2.5 2.5s-2.5-1.12-2.5-2.5 1.12-2.5 2.5-2.5 2.5 1.12 2.5 2.5zm19.9 0c0 1.38-1.1 2.5-2.5 2.5-1.37 0-2.5-1.12-2.5-2.5s1.13-2.5 2.5-2.5c1.4 0 2.5 1.12 2.5 2.5zm19.92 0c0 1.38-1.12 2.5-2.5 2.5s-2.5-1.12-2.5-2.5 1.12-2.5 2.5-2.5 2.5 1.12 2.5 2.5zm19.9 0c0 1.38-1.1 2.5-2.5 2.5-1.38 0-2.5-1.12-2.5-2.5s1.12-2.5 2.5-2.5c1.4 0 2.5 1.12 2.5 2.5zm19.9 0c0 1.38-1.1 2.5-2.5 2.5-1.37 0-2.5-1.12-2.5-2.5s1.13-2.5 2.5-2.5c1.4 0 2.5 1.12 2.5 2.5zm19.92 0c0 1.38-1.12 2.5-2.5 2.5s-2.5-1.12-2.5-2.5 1.12-2.5 2.5-2.5 2.5 1.12 2.5 2.5zm19.9 0c0 1.38-1.1 2.5-2.5 2.5-1.37 0-2.5-1.12-2.5-2.5s1.13-2.5 2.5-2.5c1.4 0 2.5 1.12 2.5 2.5zm19.92 0c0 1.38-1.12 2.5-2.5 2.5-1.4 0-2.5-1.12-2.5-2.5s1.1-2.5 2.5-2.5c1.38 0 2.5 1.12 2.5 2.5zm19.9 0c0 1.38-1.12 2.5-2.5 2.5s-2.5-1.12-2.5-2.5 1.12-2.5 2.5-2.5 2.5 1.12 2.5 2.5zm19.9 0c0 1.38-1.1 2.5-2.5 2.5-1.37 0-2.5-1.12-2.5-2.5s1.13-2.5 2.5-2.5c1.4 0 2.5 1.12 2.5 2.5zm19.92 0c0 1.38-1.12 2.5-2.5 2.5s-2.5-1.12-2.5-2.5 1.12-2.5 2.5-2.5 2.5 1.12 2.5 2.5zm19.9 0c0 1.38-1.1 2.5-2.5 2.5-1.37 0-2.5-1.12-2.5-2.5s1.13-2.5 2.5-2.5c1.4 0 2.5 1.12 2.5 2.5zm19.9 0c0 1.38-1.1 2.5-2.5 2.5-1.37 0-2.5-1.12-2.5-2.5s1.13-2.5 2.5-2.5c1.4 0 2.5 1.12 2.5 2.5zm19.92 0c0 1.38-1.12 2.5-2.5 2.5s-2.5-1.12-2.5-2.5 1.12-2.5 2.5-2.5 2.5 1.12 2.5 2.5zm19.9 0c0 1.38-1.1 2.5-2.5 2.5-1.37 0-2.5-1.12-2.5-2.5s1.13-2.5 2.5-2.5c1.4 0 2.5 1.12 2.5 2.5zm19.92 0c0 1.38-1.12 2.5-2.5 2.5s-2.5-1.12-2.5-2.5 1.12-2.5 2.5-2.5 2.5 1.12 2.5 2.5zm19.9 0c0 1.38-1.1 2.5-2.5 2.5-1.38 0-2.5-1.12-2.5-2.5s1.12-2.5 2.5-2.5c1.4 0 2.5 1.12 2.5 2.5zm19.9 0c0 1.38-1.1 2.5-2.5 2.5-1.37 0-2.5-1.12-2.5-2.5s1.13-2.5 2.5-2.5c1.4 0 2.5 1.12 2.5 2.5zm19.92 0c0 1.38-1.12 2.5-2.5 2.5s-2.5-1.12-2.5-2.5 1.12-2.5 2.5-2.5 2.5 1.12 2.5 2.5zm19.9 0c0 1.38-1.1 2.5-2.5 2.5-1.37 0-2.5-1.12-2.5-2.5s1.13-2.5 2.5-2.5c1.4 0 2.5 1.12 2.5 2.5zm19.92 0c0 1.38-1.12 2.5-2.5 2.5-1.4 0-2.5-1.12-2.5-2.5s1.1-2.5 2.5-2.5c1.38 0 2.5 1.12 2.5 2.5zm19.9 0c0 1.38-1.12 2.5-2.5 2.5s-2.5-1.12-2.5-2.5 1.12-2.5 2.5-2.5 2.5 1.12 2.5 2.5zm19.9 0c0 1.38-1.1 2.5-2.5 2.5-1.37 0-2.5-1.12-2.5-2.5s1.13-2.5 2.5-2.5c1.4 0 2.5 1.12 2.5 2.5zm19.92 0c0 1.38-1.12 2.5-2.5 2.5s-2.5-1.12-2.5-2.5 1.12-2.5 2.5-2.5 2.5 1.12 2.5 2.5zm19.9 0c0 1.38-1.1 2.5-2.5 2.5-1.37 0-2.5-1.12-2.5-2.5s1.13-2.5 2.5-2.5c1.4 0 2.5 1.12 2.5 2.5zm0 20.1c0 1.37-1.1 2.5-2.5 2.5-1.37 0-2.5-1.13-2.5-2.5 0-1.4 1.13-2.5 2.5-2.5 1.4 0 2.5 1.1 2.5 2.5zm0 20.08c0 1.38-1.1 2.5-2.5 2.5-1.37 0-2.5-1.12-2.5-2.5s1.13-2.5 2.5-2.5c1.4 0 2.5 1.12 2.5 2.5zm0 20.1c0 1.37-1.1 2.5-2.5 2.5-1.37 0-2.5-1.13-2.5-2.5 0-1.4 1.13-2.5 2.5-2.5 1.4 0 2.5 1.1 2.5 2.5zm0 20.07c0 1.4-1.1 2.5-2.5 2.5-1.37 0-2.5-1.1-2.5-2.5 0-1.38 1.13-2.5 2.5-2.5 1.4 0 2.5 1.12 2.5 2.5zm0 20.1c0 1.37-1.1 2.5-2.5 2.5-1.37 0-2.5-1.13-2.5-2.5 0-1.4 1.13-2.5 2.5-2.5 1.4 0 2.5 1.1 2.5 2.5zm0 20.08c0 1.38-1.1 2.5-2.5 2.5-1.37 0-2.5-1.12-2.5-2.5s1.13-2.5 2.5-2.5c1.4 0 2.5 1.12 2.5 2.5zm0 20.1c0 1.37-1.1 2.5-2.5 2.5-1.37 0-2.5-1.13-2.5-2.5 0-1.4 1.13-2.5 2.5-2.5 1.4 0 2.5 1.1 2.5 2.5zm0 20.08c0 1.4-1.1 2.5-2.5 2.5-1.37 0-2.5-1.1-2.5-2.5 0-1.37 1.13-2.5 2.5-2.5 1.4 0 2.5 1.13 2.5 2.5zm0 20.1c0 1.38-1.1 2.5-2.5 2.5-1.37 0-2.5-1.12-2.5-2.5s1.13-2.5 2.5-2.5c1.4 0 2.5 1.12 2.5 2.5zm0 20.1c0 1.37-1.1 2.5-2.5 2.5-1.37 0-2.5-1.13-2.5-2.5 0-1.4 1.13-2.5 2.5-2.5 1.4 0 2.5 1.1 2.5 2.5zm0 20.08c0 1.38-1.1 2.5-2.5 2.5-1.37 0-2.5-1.12-2.5-2.5 0-1.4 1.13-2.5 2.5-2.5 1.4 0 2.5 1.1 2.5 2.5zm0 20.08c0 1.38-1.1 2.5-2.5 2.5-1.37 0-2.5-1.12-2.5-2.5s1.13-2.5 2.5-2.5c1.4 0 2.5 1.12 2.5 2.5zm0 20.1c0 1.37-1.1 2.5-2.5 2.5-1.37 0-2.5-1.13-2.5-2.5 0-1.4 1.13-2.5 2.5-2.5 1.4 0 2.5 1.1 2.5 2.5zm0 20.08c0 1.38-1.1 2.5-2.5 2.5-1.37 0-2.5-1.12-2.5-2.5s1.13-2.5 2.5-2.5c1.4 0 2.5 1.12 2.5 2.5zm0 20.1c0 1.37-1.1 2.5-2.5 2.5-1.37 0-2.5-1.13-2.5-2.5 0-1.4 1.13-2.5 2.5-2.5 1.4 0 2.5 1.1 2.5 2.5zm0 20.08c0 1.38-1.1 2.5-2.5 2.5-1.37 0-2.5-1.12-2.5-2.5s1.13-2.5 2.5-2.5c1.4 0 2.5 1.12 2.5 2.5zm0 20.1c0 1.37-1.1 2.5-2.5 2.5-1.37 0-2.5-1.13-2.5-2.5 0-1.4 1.13-2.5 2.5-2.5 1.4 0 2.5 1.1 2.5 2.5zm0 20.08c0 1.38-1.1 2.5-2.5 2.5-1.37 0-2.5-1.12-2.5-2.5s1.13-2.5 2.5-2.5c1.4 0 2.5 1.12 2.5 2.5zm0 20.08c0 1.4-1.1 2.5-2.5 2.5-1.37 0-2.5-1.1-2.5-2.5 0-1.38 1.13-2.5 2.5-2.5 1.4 0 2.5 1.12 2.5 2.5zm0 20.1c0 1.37-1.1 2.5-2.5 2.5-1.37 0-2.5-1.13-2.5-2.5 0-1.4 1.13-2.5 2.5-2.5 1.4 0 2.5 1.1 2.5 2.5zm0 20.08c0 1.38-1.1 2.5-2.5 2.5-1.37 0-2.5-1.12-2.5-2.5s1.13-2.5 2.5-2.5c1.4 0 2.5 1.12 2.5 2.5zm0 20.1c0 1.37-1.1 2.5-2.5 2.5-1.37 0-2.5-1.13-2.5-2.5 0-1.4 1.13-2.5 2.5-2.5 1.4 0 2.5 1.1 2.5 2.5zm0 20.08c0 1.38-1.1 2.5-2.5 2.5-1.37 0-2.5-1.12-2.5-2.5s1.13-2.5 2.5-2.5c1.4 0 2.5 1.12 2.5 2.5zm0 20.1c0 1.37-1.1 2.5-2.5 2.5-1.37 0-2.5-1.13-2.5-2.5 0-1.4 1.13-2.5 2.5-2.5 1.4 0 2.5 1.1 2.5 2.5zm0 20.08c0 1.38-1.1 2.5-2.5 2.5-1.37 0-2.5-1.12-2.5-2.5s1.13-2.5 2.5-2.5c1.4 0 2.5 1.12 2.5 2.5zm0 20.1c0 1.37-1.1 2.5-2.5 2.5-1.37 0-2.5-1.13-2.5-2.5 0-1.4 1.13-2.5 2.5-2.5 1.4 0 2.5 1.1 2.5 2.5zm0 20.07c0 1.37-1.1 2.5-2.5 2.5-1.37 0-2.5-1.13-2.5-2.5 0-1.4 1.13-2.5 2.5-2.5 1.4 0 2.5 1.1 2.5 2.5zm0 20.08c0 1.38-1.1 2.5-2.5 2.5-1.37 0-2.5-1.12-2.5-2.5s1.13-2.5 2.5-2.5c1.4 0 2.5 1.12 2.5 2.5zm0 20.1c0 1.37-1.1 2.5-2.5 2.5-1.37 0-2.5-1.13-2.5-2.5 0-1.4 1.13-2.5 2.5-2.5 1.4 0 2.5 1.1 2.5 2.5zm0 20.08c0 1.38-1.1 2.5-2.5 2.5-1.37 0-2.5-1.12-2.5-2.5s1.13-2.5 2.5-2.5c1.4 0 2.5 1.12 2.5 2.5zm0 20.1c0 1.37-1.1 2.5-2.5 2.5-1.37 0-2.5-1.13-2.5-2.5 0-1.4 1.13-2.5 2.5-2.5 1.4 0 2.5 1.1 2.5 2.5zm0 20.08c0 1.38-1.1 2.5-2.5 2.5-1.37 0-2.5-1.12-2.5-2.5s1.13-2.5 2.5-2.5c1.4 0 2.5 1.12 2.5 2.5zm0 20.1c0 1.37-1.1 2.5-2.5 2.5-1.37 0-2.5-1.13-2.5-2.5 0-1.4 1.13-2.5 2.5-2.5 1.4 0 2.5 1.1 2.5 2.5zm0 20.07c0 1.4-1.1 2.5-2.5 2.5-1.37 0-2.5-1.1-2.5-2.5 0-1.37 1.13-2.5 2.5-2.5 1.4 0 2.5 1.13 2.5 2.5zm0 20.1c0 1.38-1.1 2.5-2.5 2.5-1.37 0-2.5-1.12-2.5-2.5s1.13-2.5 2.5-2.5c1.4 0 2.5 1.12 2.5 2.5zm0 20.1c0 1.37-1.1 2.5-2.5 2.5-1.37 0-2.5-1.13-2.5-2.5 0-1.4 1.13-2.5 2.5-2.5 1.4 0 2.5 1.1 2.5 2.5zm0 20.08c0 1.38-1.1 2.5-2.5 2.5-1.37 0-2.5-1.12-2.5-2.5s1.13-2.5 2.5-2.5c1.4 0 2.5 1.12 2.5 2.5zm0 20.1c0 1.37-1.1 2.5-2.5 2.5-1.37 0-2.5-1.13-2.5-2.5 0-1.4 1.13-2.5 2.5-2.5 1.4 0 2.5 1.1 2.5 2.5zm0 20.08c0 1.38-1.1 2.5-2.5 2.5-1.37 0-2.5-1.12-2.5-2.5s1.13-2.5 2.5-2.5c1.4 0 2.5 1.12 2.5 2.5zm0 20.1c0 1.37-1.1 2.5-2.5 2.5-1.37 0-2.5-1.13-2.5-2.5 0-1.4 1.13-2.5 2.5-2.5 1.4 0 2.5 1.1 2.5 2.5zm0 20.08c0 1.38-1.1 2.5-2.5 2.5-1.37 0-2.5-1.12-2.5-2.5 0-1.4 1.13-2.5 2.5-2.5 1.4 0 2.5 1.1 2.5 2.5zm0 20.08c0 1.38-1.1 2.5-2.5 2.5-1.37 0-2.5-1.12-2.5-2.5s1.13-2.5 2.5-2.5c1.4 0 2.5 1.12 2.5 2.5zm-19.9 0c0 1.38-1.12 2.5-2.5 2.5s-2.5-1.12-2.5-2.5 1.12-2.5 2.5-2.5 2.5 1.12 2.5 2.5zm-19.9 0c0 1.38-1.13 2.5-2.5 2.5-1.4 0-2.5-1.12-2.5-2.5s1.1-2.5 2.5-2.5c1.37 0 2.5 1.12 2.5 2.5zm-19.92 0c0 1.38-1.12 2.5-2.5 2.5s-2.5-1.12-2.5-2.5 1.12-2.5 2.5-2.5 2.5 1.12 2.5 2.5zm-19.9 0c0 1.38-1.12 2.5-2.5 2.5-1.4 0-2.5-1.12-2.5-2.5s1.1-2.5 2.5-2.5c1.38 0 2.5 1.12 2.5 2.5zm-19.9 0c0 1.38-1.13 2.5-2.5 2.5-1.4 0-2.5-1.12-2.5-2.5s1.1-2.5 2.5-2.5c1.37 0 2.5 1.12 2.5 2.5zm-19.92 0c0 1.38-1.12 2.5-2.5 2.5s-2.5-1.12-2.5-2.5 1.12-2.5 2.5-2.5 2.5 1.12 2.5 2.5zm-19.9 0c0 1.38-1.13 2.5-2.5 2.5-1.4 0-2.5-1.12-2.5-2.5s1.1-2.5 2.5-2.5c1.37 0 2.5 1.12 2.5 2.5zm-19.92 0c0 1.38-1.1 2.5-2.5 2.5-1.38 0-2.5-1.12-2.5-2.5s1.12-2.5 2.5-2.5c1.4 0 2.5 1.12 2.5 2.5zm-19.9 0c0 1.38-1.12 2.5-2.5 2.5s-2.5-1.12-2.5-2.5 1.12-2.5 2.5-2.5 2.5 1.12 2.5 2.5zm-19.9 0c0 1.38-1.13 2.5-2.5 2.5-1.4 0-2.5-1.12-2.5-2.5s1.1-2.5 2.5-2.5c1.37 0 2.5 1.12 2.5 2.5zm-19.92 0c0 1.38-1.12 2.5-2.5 2.5s-2.5-1.12-2.5-2.5 1.12-2.5 2.5-2.5 2.5 1.12 2.5 2.5zm-19.9 0c0 1.38-1.13 2.5-2.5 2.5-1.4 0-2.5-1.12-2.5-2.5s1.1-2.5 2.5-2.5c1.37 0 2.5 1.12 2.5 2.5zm-19.9 0c0 1.38-1.13 2.5-2.5 2.5-1.4 0-2.5-1.12-2.5-2.5s1.1-2.5 2.5-2.5c1.37 0 2.5 1.12 2.5 2.5zm-19.92 0c0 1.38-1.12 2.5-2.5 2.5s-2.5-1.12-2.5-2.5 1.12-2.5 2.5-2.5 2.5 1.12 2.5 2.5zm-19.9 0c0 1.38-1.13 2.5-2.5 2.5-1.4 0-2.5-1.12-2.5-2.5s1.1-2.5 2.5-2.5c1.37 0 2.5 1.12 2.5 2.5zm-19.92 0c0 1.38-1.12 2.5-2.5 2.5s-2.5-1.12-2.5-2.5 1.12-2.5 2.5-2.5 2.5 1.12 2.5 2.5zm-19.9 0c0 1.38-1.12 2.5-2.5 2.5-1.4 0-2.5-1.12-2.5-2.5s1.1-2.5 2.5-2.5c1.38 0 2.5 1.12 2.5 2.5zm-19.9 0c0 1.38-1.13 2.5-2.5 2.5-1.4 0-2.5-1.12-2.5-2.5s1.1-2.5 2.5-2.5c1.37 0 2.5 1.12 2.5 2.5zm-19.92 0c0 1.38-1.12 2.5-2.5 2.5s-2.5-1.12-2.5-2.5 1.12-2.5 2.5-2.5 2.5 1.12 2.5 2.5zm-19.9 0c0 1.38-1.13 2.5-2.5 2.5-1.4 0-2.5-1.12-2.5-2.5s1.1-2.5 2.5-2.5c1.37 0 2.5 1.12 2.5 2.5zm-19.92 0c0 1.38-1.1 2.5-2.5 2.5-1.38 0-2.5-1.12-2.5-2.5s1.12-2.5 2.5-2.5c1.4 0 2.5 1.12 2.5 2.5zm-19.9 0c0 1.38-1.12 2.5-2.5 2.5s-2.5-1.12-2.5-2.5 1.12-2.5 2.5-2.5 2.5 1.12 2.5 2.5zm-19.9 0c0 1.38-1.13 2.5-2.5 2.5-1.4 0-2.5-1.12-2.5-2.5s1.1-2.5 2.5-2.5c1.37 0 2.5 1.12 2.5 2.5zm-19.92 0c0 1.38-1.12 2.5-2.5 2.5s-2.5-1.12-2.5-2.5 1.12-2.5 2.5-2.5 2.5 1.12 2.5 2.5zm-19.9 0c0 1.38-1.13 2.5-2.5 2.5-1.4 0-2.5-1.12-2.5-2.5s1.1-2.5 2.5-2.5c1.37 0 2.5 1.12 2.5 2.5zm-19.9 0c0 1.38-1.13 2.5-2.5 2.5-1.4 0-2.5-1.12-2.5-2.5s1.1-2.5 2.5-2.5c1.37 0 2.5 1.12 2.5 2.5zm-19.92 0c0 1.38-1.12 2.5-2.5 2.5s-2.5-1.12-2.5-2.5 1.12-2.5 2.5-2.5 2.5 1.12 2.5 2.5zm-19.9 0c0 1.38-1.13 2.5-2.5 2.5-1.4 0-2.5-1.12-2.5-2.5s1.1-2.5 2.5-2.5c1.37 0 2.5 1.12 2.5 2.5zm-19.92 0c0 1.38-1.12 2.5-2.5 2.5s-2.5-1.12-2.5-2.5 1.12-2.5 2.5-2.5 2.5 1.12 2.5 2.5zm-19.9 0c0 1.38-1.12 2.5-2.5 2.5-1.4 0-2.5-1.12-2.5-2.5s1.1-2.5 2.5-2.5c1.38 0 2.5 1.12 2.5 2.5zm-19.9 0c0 1.38-1.13 2.5-2.5 2.5-1.4 0-2.5-1.12-2.5-2.5s1.1-2.5 2.5-2.5c1.37 0 2.5 1.12 2.5 2.5zm-19.92 0c0 1.38-1.12 2.5-2.5 2.5s-2.5-1.12-2.5-2.5 1.12-2.5 2.5-2.5 2.5 1.12 2.5 2.5zm-19.9 0c0 1.38-1.13 2.5-2.5 2.5-1.4 0-2.5-1.12-2.5-2.5s1.1-2.5 2.5-2.5c1.37 0 2.5 1.12 2.5 2.5zm-19.92 0c0 1.38-1.1 2.5-2.5 2.5-1.38 0-2.5-1.12-2.5-2.5s1.12-2.5 2.5-2.5c1.4 0 2.5 1.12 2.5 2.5zm-19.9 0c0 1.38-1.12 2.5-2.5 2.5s-2.5-1.12-2.5-2.5 1.12-2.5 2.5-2.5 2.5 1.12 2.5 2.5zm-19.9 0c0 1.38-1.13 2.5-2.5 2.5-1.4 0-2.5-1.12-2.5-2.5s1.1-2.5 2.5-2.5c1.37 0 2.5 1.12 2.5 2.5zm-19.92 0c0 1.38-1.12 2.5-2.5 2.5s-2.5-1.12-2.5-2.5 1.12-2.5 2.5-2.5 2.5 1.12 2.5 2.5zm-19.9 0c0 1.38-1.13 2.5-2.5 2.5-1.4 0-2.5-1.12-2.5-2.5s1.1-2.5 2.5-2.5c1.37 0 2.5 1.12 2.5 2.5zm-19.9 0c0 1.38-1.13 2.5-2.5 2.5-1.4 0-2.5-1.12-2.5-2.5s1.1-2.5 2.5-2.5c1.37 0 2.5 1.12 2.5 2.5zm-19.92 0c0 1.38-1.12 2.5-2.5 2.5s-2.5-1.12-2.5-2.5 1.12-2.5 2.5-2.5 2.5 1.12 2.5 2.5zm-19.9 0c0 1.38-1.13 2.5-2.5 2.5-1.4 0-2.5-1.12-2.5-2.5s1.1-2.5 2.5-2.5c1.37 0 2.5 1.12 2.5 2.5zm-19.92 0c0 1.38-1.12 2.5-2.5 2.5s-2.5-1.12-2.5-2.5 1.12-2.5 2.5-2.5 2.5 1.12 2.5 2.5zm-19.9 0c0 1.38-1.12 2.5-2.5 2.5-1.4 0-2.5-1.12-2.5-2.5s1.1-2.5 2.5-2.5c1.38 0 2.5 1.12 2.5 2.5zm-19.9 0c0 1.38-1.13 2.5-2.5 2.5-1.4 0-2.5-1.12-2.5-2.5s1.1-2.5 2.5-2.5c1.37 0 2.5 1.12 2.5 2.5zm-19.92 0c0 1.38-1.12 2.5-2.5 2.5s-2.5-1.12-2.5-2.5 1.12-2.5 2.5-2.5 2.5 1.12 2.5 2.5zm-19.9 0c0 1.38-1.13 2.5-2.5 2.5-1.4 0-2.5-1.12-2.5-2.5s1.1-2.5 2.5-2.5c1.37 0 2.5 1.12 2.5 2.5zm-19.92 0c0 1.38-1.1 2.5-2.5 2.5-1.38 0-2.5-1.12-2.5-2.5s1.12-2.5 2.5-2.5c1.4 0 2.5 1.12 2.5 2.5zm-19.9 0c0 1.38-1.12 2.5-2.5 2.5s-2.5-1.12-2.5-2.5 1.12-2.5 2.5-2.5 2.5 1.12 2.5 2.5zm-19.9 0c0 1.38-1.13 2.5-2.5 2.5-1.4 0-2.5-1.12-2.5-2.5s1.1-2.5 2.5-2.5c1.37 0 2.5 1.12 2.5 2.5zm-19.92 0c0 1.38-1.12 2.5-2.5 2.5s-2.5-1.12-2.5-2.5 1.12-2.5 2.5-2.5 2.5 1.12 2.5 2.5zm-19.9 0c0 1.38-1.13 2.5-2.5 2.5-1.4 0-2.5-1.12-2.5-2.5s1.1-2.5 2.5-2.5c1.37 0 2.5 1.12 2.5 2.5zm-19.9 0c0 1.38-1.13 2.5-2.5 2.5-1.4 0-2.5-1.12-2.5-2.5s1.1-2.5 2.5-2.5c1.37 0 2.5 1.12 2.5 2.5zm-19.92 0c0 1.38-1.12 2.5-2.5 2.5s-2.5-1.12-2.5-2.5 1.12-2.5 2.5-2.5 2.5 1.12 2.5 2.5zm-19.9 0c0 1.38-1.13 2.5-2.5 2.5-1.4 0-2.5-1.12-2.5-2.5s1.1-2.5 2.5-2.5c1.37 0 2.5 1.12 2.5 2.5zm-19.92 0c0 1.38-1.12 2.5-2.5 2.5s-2.5-1.12-2.5-2.5 1.12-2.5 2.5-2.5 2.5 1.12 2.5 2.5zm-19.9 0c0 1.38-1.12 2.5-2.5 2.5-1.4 0-2.5-1.12-2.5-2.5s1.1-2.5 2.5-2.5c1.38 0 2.5 1.12 2.5 2.5zm-19.9 0c0 1.38-1.13 2.5-2.5 2.5-1.4 0-2.5-1.12-2.5-2.5s1.1-2.5 2.5-2.5c1.37 0 2.5 1.12 2.5 2.5zm-19.92 0c0 1.38-1.12 2.5-2.5 2.5s-2.5-1.12-2.5-2.5 1.12-2.5 2.5-2.5 2.5 1.12 2.5 2.5zm-19.9 0c0 1.38-1.13 2.5-2.5 2.5-1.4 0-2.5-1.12-2.5-2.5s1.1-2.5 2.5-2.5c1.37 0 2.5 1.12 2.5 2.5zm-19.92 0c0 1.38-1.1 2.5-2.5 2.5-1.38 0-2.5-1.12-2.5-2.5s1.12-2.5 2.5-2.5c1.4 0 2.5 1.12 2.5 2.5zm-19.9 0c0 1.38-1.12 2.5-2.5 2.5s-2.5-1.12-2.5-2.5 1.12-2.5 2.5-2.5 2.5 1.12 2.5 2.5zm-19.9 0c0 1.38-1.13 2.5-2.5 2.5-1.4 0-2.5-1.12-2.5-2.5s1.1-2.5 2.5-2.5c1.37 0 2.5 1.12 2.5 2.5zm-19.92 0c0 1.38-1.12 2.5-2.5 2.5s-2.5-1.12-2.5-2.5 1.12-2.5 2.5-2.5 2.5 1.12 2.5 2.5zm0-20.08c0 1.38-1.12 2.5-2.5 2.5s-2.5-1.12-2.5-2.5c0-1.4 1.12-2.5 2.5-2.5s2.5 1.1 2.5 2.5zm0-20.1c0 1.4-1.12 2.5-2.5 2.5s-2.5-1.1-2.5-2.5c0-1.37 1.12-2.5 2.5-2.5s2.5 1.13 2.5 2.5zm0-20.08c0 1.38-1.12 2.5-2.5 2.5s-2.5-1.12-2.5-2.5 1.12-2.5 2.5-2.5 2.5 1.12 2.5 2.5zm0-20.1c0 1.4-1.12 2.5-2.5 2.5s-2.5-1.1-2.5-2.5c0-1.37 1.12-2.5 2.5-2.5s2.5 1.13 2.5 2.5zm0-20.08c0 1.38-1.12 2.5-2.5 2.5s-2.5-1.12-2.5-2.5 1.12-2.5 2.5-2.5 2.5 1.12 2.5 2.5zm0-20.1c0 1.4-1.12 2.5-2.5 2.5s-2.5-1.1-2.5-2.5c0-1.37 1.12-2.5 2.5-2.5s2.5 1.13 2.5 2.5zm0-20.08c0 1.38-1.12 2.5-2.5 2.5s-2.5-1.12-2.5-2.5 1.12-2.5 2.5-2.5 2.5 1.12 2.5 2.5zm0-20.1c0 1.4-1.12 2.5-2.5 2.5s-2.5-1.1-2.5-2.5c0-1.37 1.12-2.5 2.5-2.5s2.5 1.13 2.5 2.5zm0-20.07c0 1.38-1.12 2.5-2.5 2.5s-2.5-1.12-2.5-2.5 1.12-2.5 2.5-2.5 2.5 1.12 2.5 2.5zm0-20.1c0 1.4-1.12 2.5-2.5 2.5s-2.5-1.1-2.5-2.5c0-1.37 1.12-2.5 2.5-2.5s2.5 1.13 2.5 2.5zm0-20.08c0 1.38-1.12 2.5-2.5 2.5s-2.5-1.12-2.5-2.5 1.12-2.5 2.5-2.5 2.5 1.12 2.5 2.5zm0-20.1c0 1.4-1.12 2.5-2.5 2.5s-2.5-1.1-2.5-2.5c0-1.37 1.12-2.5 2.5-2.5s2.5 1.13 2.5 2.5zm0-20.08c0 1.38-1.12 2.5-2.5 2.5s-2.5-1.12-2.5-2.5 1.12-2.5 2.5-2.5 2.5 1.12 2.5 2.5zm0-20.1c0 1.4-1.12 2.5-2.5 2.5s-2.5-1.1-2.5-2.5c0-1.37 1.12-2.5 2.5-2.5s2.5 1.13 2.5 2.5zm0-20.08c0 1.37-1.12 2.5-2.5 2.5s-2.5-1.13-2.5-2.5c0-1.4 1.12-2.5 2.5-2.5s2.5 1.1 2.5 2.5zm0-20.1c0 1.4-1.12 2.5-2.5 2.5s-2.5-1.1-2.5-2.5c0-1.38 1.12-2.5 2.5-2.5s2.5 1.12 2.5 2.5zm0-20.08c0 1.38-1.12 2.5-2.5 2.5s-2.5-1.12-2.5-2.5 1.12-2.5 2.5-2.5 2.5 1.12 2.5 2.5zm0-20.1c0 1.4-1.12 2.5-2.5 2.5s-2.5-1.1-2.5-2.5c0-1.37 1.12-2.5 2.5-2.5s2.5 1.13 2.5 2.5zm0-20.08c0 1.38-1.12 2.5-2.5 2.5s-2.5-1.12-2.5-2.5 1.12-2.5 2.5-2.5 2.5 1.12 2.5 2.5zm0-20.1c0 1.4-1.12 2.5-2.5 2.5s-2.5-1.1-2.5-2.5c0-1.37 1.12-2.5 2.5-2.5s2.5 1.13 2.5 2.5zm0-20.08c0 1.38-1.12 2.5-2.5 2.5s-2.5-1.12-2.5-2.5 1.12-2.5 2.5-2.5 2.5 1.12 2.5 2.5zm0-20.1c0 1.4-1.12 2.5-2.5 2.5s-2.5-1.1-2.5-2.5c0-1.37 1.12-2.5 2.5-2.5s2.5 1.13 2.5 2.5zm0-20.08c0 1.4-1.12 2.5-2.5 2.5s-2.5-1.1-2.5-2.5c0-1.38 1.12-2.5 2.5-2.5s2.5 1.12 2.5 2.5zm0-20.08c0 1.38-1.12 2.5-2.5 2.5s-2.5-1.12-2.5-2.5 1.12-2.5 2.5-2.5 2.5 1.12 2.5 2.5zm0-20.1c0 1.4-1.12 2.5-2.5 2.5s-2.5-1.1-2.5-2.5c0-1.37 1.12-2.5 2.5-2.5s2.5 1.13 2.5 2.5zm0-20.08c0 1.38-1.12 2.5-2.5 2.5s-2.5-1.12-2.5-2.5 1.12-2.5 2.5-2.5 2.5 1.12 2.5 2.5zm0-20.1c0 1.4-1.12 2.5-2.5 2.5s-2.5-1.1-2.5-2.5c0-1.37 1.12-2.5 2.5-2.5s2.5 1.13 2.5 2.5zm0-20.08c0 1.38-1.12 2.5-2.5 2.5s-2.5-1.12-2.5-2.5 1.12-2.5 2.5-2.5 2.5 1.12 2.5 2.5zm0-20.1c0 1.4-1.12 2.5-2.5 2.5s-2.5-1.1-2.5-2.5c0-1.37 1.12-2.5 2.5-2.5s2.5 1.13 2.5 2.5zm0-20.08c0 1.38-1.12 2.5-2.5 2.5s-2.5-1.12-2.5-2.5 1.12-2.5 2.5-2.5 2.5 1.12 2.5 2.5zm0-20.08c0 1.38-1.12 2.5-2.5 2.5s-2.5-1.12-2.5-2.5c0-1.4 1.12-2.5 2.5-2.5s2.5 1.1 2.5 2.5zm0-20.1c0 1.4-1.12 2.5-2.5 2.5s-2.5-1.1-2.5-2.5c0-1.37 1.12-2.5 2.5-2.5s2.5 1.13 2.5 2.5zm0-20.08c0 1.38-1.12 2.5-2.5 2.5s-2.5-1.12-2.5-2.5 1.12-2.5 2.5-2.5 2.5 1.12 2.5 2.5zm0-20.1c0 1.4-1.12 2.5-2.5 2.5s-2.5-1.1-2.5-2.5c0-1.37 1.12-2.5 2.5-2.5s2.5 1.13 2.5 2.5zm0-20.08c0 1.38-1.12 2.5-2.5 2.5s-2.5-1.12-2.5-2.5 1.12-2.5 2.5-2.5 2.5 1.12 2.5 2.5zm0-20.1c0 1.4-1.12 2.5-2.5 2.5s-2.5-1.1-2.5-2.5c0-1.37 1.12-2.5 2.5-2.5s2.5 1.13 2.5 2.5zm0-20.08c0 1.38-1.12 2.5-2.5 2.5s-2.5-1.12-2.5-2.5 1.12-2.5 2.5-2.5 2.5 1.12 2.5 2.5zm0-20.1c0 1.4-1.12 2.5-2.5 2.5s-2.5-1.1-2.5-2.5c0-1.37 1.12-2.5 2.5-2.5s2.5 1.13 2.5 2.5zm0-20.07c0 1.38-1.12 2.5-2.5 2.5s-2.5-1.12-2.5-2.5 1.12-2.5 2.5-2.5 2.5 1.12 2.5 2.5zm0-20.1c0 1.4-1.12 2.5-2.5 2.5s-2.5-1.1-2.5-2.5c0-1.37 1.12-2.5 2.5-2.5s2.5 1.13 2.5 2.5zm0-20.08c0 1.37-1.12 2.5-2.5 2.5s-2.5-1.13-2.5-2.5c0-1.4 1.12-2.5 2.5-2.5s2.5 1.1 2.5 2.5z" fill="#0078d7"/><use xlink:href="#a" transform="matrix(1,0,0,1,308.26171657725297,185.00000000000006) translate(0 24.888888888888893)"/><use xlink:href="#b" transform="matrix(1,0,0,1,308.26171657725297,185.00000000000006) translate(136.45679012345678 24.888888888888893)"/><use xlink:href="#c" transform="matrix(1,0,0,1,308.26171657725297,185.00000000000006) translate(155.3827160493827 24.888888888888893)"/><path d="M1505.83 1041.7h61.3v-33.2h-61.3z" stroke="#000" stroke-opacity="0" stroke-width="3.33" fill="#fff"/><path d="M1567.14 1025.1l-3.74-3.7-12.88-12.9-2.02 2.16 14.47 14.45-14.47 14.45 2.02 2.16 12.88-12.87zM1505.83 1025.1l3.74-3.7 12.88-12.9 2.02 2.16-14.47 14.45 14.47 14.45-2.02 2.16-12.88-12.87z" stroke="#000" stroke-opacity="0" stroke-width="3.33" fill="#0078d7"/><path d="M1529.13 1025.1c0 2.03-1.72 3.73-3.74 3.73-2.16 0-3.75-1.7-3.75-3.72 0-2.02 1.72-3.7 3.74-3.7 2 0 3.73 1.55 3.73 3.7zM1540.3 1025.1c0-2.05-1.67-3.7-3.75-3.7-2.03 0-3.74 1.65-3.74 3.7 0 2.07 1.72 3.73 3.75 3.73 2.08 0 3.74-1.66 3.74-3.72zM1551.44 1025.1c0-2.05-1.65-3.7-3.67-3.7-2.1 0-3.74 1.65-3.74 3.7 0 2.07 1.65 3.73 3.74 3.73 2.02 0 3.67-1.66 3.67-3.72z" stroke="#000" stroke-opacity="0" stroke-width="3.33" fill="#0078d7"/><path d="M1175.2 440c-3 0-5.76-1.2-7.8-3.24l-48.96-48.96c-2.04-2.04-3.24-4.92-3.24-7.8s1.2-5.76 3.24-7.8l48.96-48.96c2.04-2.04 4.8-3.24 7.8-3.24s5.76 1.2 7.8 3.24l48.96 48.96c2.04 2.04 3.24 4.8 3.24 7.8s-1.2 5.76-3.24 7.8L1183 436.76c-2.04 2.04-4.8 3.24-7.8 3.24" stroke="#000" stroke-opacity="0" fill="#7fba00"/><path d="M1224.67 379.23l-15.83-15.9v11.15h-16.92c-1.58-5.82-6.13-10.38-11.87-12.03v-16h10.98l-15.83-15.92-15.83 15.9h10.98v16.02c-5.74 1.65-10.3 6.2-11.87 12.03h-16.92v-11.06l-15.83 15.8 15.83 15.92V383.9h16.92c1.58 5.8 6.13 10.37 11.87 12v11.17c-2.37 1.75-6.03 5.43-6.03 9.7 0 5.92 4.84 10.77 10.88 10.77 5.94 0 10.78-4.85 10.78-10.77 0-4.27-3.56-7.86-5.93-9.7V395.9c5.74-1.63 10.3-6.2 11.87-11.92h16.92v11.06l15.83-15.8z" stroke="#000" stroke-opacity="0" fill="#fff"/><path d="M1175.2 366.57c-6.97 0-12.62 5.65-12.62 12.62 0 6.95 5.65 12.6 12.62 12.6 6.97 0 12.62-5.65 12.62-12.6 0-6.98-5.65-12.63-12.62-12.63z" stroke="#000" stroke-opacity="0" fill="#59b4d9"/><path d="M1183.06 323.25c-2.16-2.1-4.9-3.25-7.9-3.25-2.9 0-5.72 1.15-7.8 3.25l-48.92 48.9c-2.08 2.1-3.24 4.98-3.24 7.84 0 2.95 1.16 5.72 3.24 7.83l27.74 27.7 52.08-77.1-15.2-15.18z" stroke="#000" stroke-opacity="0" fill="#fff" fill-opacity=".15"/><use xlink:href="#d" transform="matrix(1,0,0,1,1085.2,449) translate(62.34567901234567 14.222222222222223)"/><path d="M985.12 115.56c6.12 2.7 10.08 8.9 10.08 16 0 8.16-5.28 15.13-12.6 16.93l-2.4.54h-86.76c-10.08 0-18.24-8.77-18.24-19.33 0-10.55 8.16-19.32 18.24-19.32.84 0 1.32 0 2.16.2 3-5.1 8.16-8 13.92-8 1.56 0 3 .2 4.56.7v-.7C914.08 90 923.56 80 935.44 80c8.16 0 15.72 5.25 19.2 13.12 3-1.87 6.48-2.9 10.08-2.9 11.4 0 20.64 9.8 20.64 21.8.12 1.12 0 2.22-.24 3.54z" stroke="#000" stroke-opacity="0" fill="#0078d7"/><path d="M936.16 149.54V218c0 6.63-5.37 12-12 12H708c-6.63 0-12 5.37-12 12v239.62" stroke="#666" fill="none"/><path d="M936.66 149.55h-1v-.5h1z" fill="#666"/><path d="M696 496.38l-4.63-14.26h9.27z" stroke="#666" fill="#666"/><path d="M936.16 149.54V218c0 6.63 5.37 12 12 12H1164c6.63 0 12 5.37 12 12v61.7" stroke="#666" fill="none"/><path d="M936.66 149.55h-1v-.5h1z" fill="#666"/><path d="M1176 318.46l-4.64-14.27h9.28z" stroke="#666" fill="#666"/><path d="M1175.2 440.5v41.12" stroke="#666" fill="none"/><path d="M1175.2 440l.5-.05v.56h-1v-.55z" fill="#666"/><path d="M1175.2 496.38l-4.64-14.26h9.28z" stroke="#666" fill="#666"/><path d="M955.2 502c0-1.1.9-2 2-2h436c1.1 0 2 .9 2 2v216c0 1.1-.9 2-2 2h-436c-1.1 0-2-.9-2-2z" stroke="#d8d8d8" stroke-width="4" fill="#f2f2f2"/><use xlink:href="#e" transform="matrix(1,0,0,1,971.2,516) translate(0 14.222222222222223)"/><use xlink:href="#f" transform="matrix(1,0,0,1,971.2,516) translate(109.53086419753089 14.222222222222223)"/><use xlink:href="#g" transform="matrix(1,0,0,1,971.2,516) translate(199.35802469135805 14.222222222222223)"/><path d="M1109.58 646.1h-32.96c3.97 14.33-1.34 16.4-24.62 16.4v7.5h79.2v-7.5c-23.3 0-25.58-2.07-21.62-16.4" stroke="#000" stroke-opacity="0" fill="#7a7a7a"/><path d="M1143.2 560h-106.32c-3.6 0-6.48 3.2-6.48 6.8v74.95c0 3.54 2.88 6.73 6.48 6.73h106.32c3.6 0 7.2-3.2 7.2-6.73V566.8c0-3.6-3.6-6.8-7.2-6.8" stroke="#000" stroke-opacity="0" fill="#a0a1a2"/><path d="M1143.22 560h-106.28c-3.6 0-6.54 3.2-6.54 6.82v74.93c0 3.54 2.93 6.73 6.54 6.73h2.5L1143.2 560z" stroke="#000" stroke-opacity="0" fill="#fff" fill-opacity=".2"/><path d="M1140.8 569.57v69.34H1040v-69.33h100.8z" stroke="#000" stroke-opacity="0" fill="#59b4d9"/><path d="M1052 662.83h79.2V670H1052v-7.17z" stroke="#000" stroke-opacity="0" fill="#a0a1a2"/><path d="M1091.64 565c0 .95-.76 1.7-1.7 1.7-.95 0-1.7-.75-1.7-1.7 0-.93.75-1.7 1.7-1.7.94 0 1.7.77 1.7 1.7" stroke="#000" stroke-opacity="0" fill="#b8d432"/><path d="M1090.48 601.6c-.13 0-.2-.03-.34-.1L1069 589.34c-.17-.12-.3-.33-.3-.56 0-.24.13-.44.3-.54l21-12.1c.22-.1.44-.1.66 0l21.13 12.17c.17.1.3.33.3.56 0 .22-.13.43-.3.53l-21 12.06c-.1.07-.23.1-.32.1" stroke="#000" stroke-opacity="0" fill="#fff"/><path d="M1087.43 631.13c-.13 0-.22-.04-.33-.07l-21.05-12.14c-.22-.12-.34-.3-.34-.53v-24.33c0-.23.13-.45.35-.57.18-.1.42-.1.62 0l21.08 12.14c.18.12.3.3.3.53v24.32c0 .22-.12.44-.3.56-.1.03-.23.07-.32.07" stroke="#000" stroke-opacity="0" fill="#fff" fill-opacity=".7"/><path d="M1093.4 631.13c-.1 0-.22-.04-.34-.07-.2-.12-.3-.34-.3-.57v-24.15c0-.22.1-.45.3-.56l21.06-12.14c.2-.1.45-.1.63 0 .22.12.33.34.33.57v24.14c0 .26-.1.45-.33.56l-21.04 12.13c-.08.03-.2.07-.3.07" stroke="#000" stroke-opacity="0" fill="#fff" fill-opacity=".4"/><path d="M1053.42 662.83h76.35c.95 0 1.43.48 1.43 1.43v4.3c0 .96-.48 1.44-1.43 1.44h-76.35c-.95 0-1.42-.48-1.42-1.43v-4.3c0-.96.47-1.44 1.42-1.44z" stroke="#000" stroke-opacity="0" stroke-width="0" fill-opacity="0"/><use xlink:href="#h" transform="matrix(1,0,0,1,1000.3999999999999,679) translate(85 14.4)"/><path d="M1274.38 646.1h-32.96c3.97 14.33-1.34 16.4-24.62 16.4v7.5h79.2v-7.5c-23.3 0-25.58-2.07-21.62-16.4" stroke="#000" stroke-opacity="0" fill="#7a7a7a"/><path d="M1308 560h-106.32c-3.6 0-6.48 3.2-6.48 6.8v74.95c0 3.54 2.88 6.73 6.48 6.73H1308c3.6 0 7.2-3.2 7.2-6.73V566.8c0-3.6-3.6-6.8-7.2-6.8" stroke="#000" stroke-opacity="0" fill="#a0a1a2"/><path d="M1308.02 560h-106.28c-3.6 0-6.54 3.2-6.54 6.82v74.93c0 3.54 2.93 6.73 6.54 6.73h2.5L1308 560z" stroke="#000" stroke-opacity="0" fill="#fff" fill-opacity=".2"/><path d="M1305.6 569.57v69.34h-100.8v-69.33h100.8z" stroke="#000" stroke-opacity="0" fill="#59b4d9"/><path d="M1216.8 662.83h79.2V670h-79.2v-7.17z" stroke="#000" stroke-opacity="0" fill="#a0a1a2"/><path d="M1256.44 565c0 .95-.76 1.7-1.7 1.7-.95 0-1.7-.75-1.7-1.7 0-.93.75-1.7 1.7-1.7.94 0 1.7.77 1.7 1.7" stroke="#000" stroke-opacity="0" fill="#b8d432"/><path d="M1255.28 601.6c-.13 0-.2-.03-.34-.1l-21.14-12.15c-.17-.12-.3-.33-.3-.56 0-.24.13-.44.3-.54l21-12.1c.22-.1.44-.1.66 0l21.13 12.17c.17.1.3.33.3.56 0 .22-.13.43-.3.53l-21 12.06c-.1.07-.23.1-.32.1" stroke="#000" stroke-opacity="0" fill="#fff"/><path d="M1252.23 631.13c-.13 0-.22-.04-.33-.07l-21.05-12.14c-.22-.12-.34-.3-.34-.53v-24.33c0-.23.13-.45.35-.57.18-.1.42-.1.62 0l21.08 12.14c.18.12.3.3.3.53v24.32c0 .22-.12.44-.3.56-.1.03-.23.07-.32.07" stroke="#000" stroke-opacity="0" fill="#fff" fill-opacity=".7"/><path d="M1258.2 631.13c-.1 0-.22-.04-.34-.07-.2-.12-.3-.34-.3-.57v-24.15c0-.22.1-.45.3-.56l21.06-12.14c.2-.1.45-.1.63 0 .22.12.33.34.33.57v24.14c0 .26-.1.45-.33.56l-21.04 12.13c-.08.03-.2.07-.3.07" stroke="#000" stroke-opacity="0" fill="#fff" fill-opacity=".4"/><path d="M1218.22 662.83h76.35c.95 0 1.43.48 1.43 1.43v4.3c0 .96-.48 1.44-1.43 1.44h-76.35c-.95 0-1.42-.48-1.42-1.43v-4.3c0-.96.47-1.44 1.42-1.44z" stroke="#000" stroke-opacity="0" stroke-width="0" fill-opacity="0"/><use xlink:href="#i" transform="matrix(1,0,0,1,1165.2,679) translate(85 14.4)"/><path d="M575.2 502c0-1.1.9-2 2-2h236c1.1 0 2 .9 2 2v216c0 1.1-.9 2-2 2h-236c-1.1 0-2-.9-2-2z" stroke="#d8d8d8" stroke-width="4" fill="#f2f2f2"/><use xlink:href="#j" transform="matrix(1,0,0,1,591.1999999999998,516) translate(0 14.222222222222223)"/><use xlink:href="#k" transform="matrix(1,0,0,1,591.1999999999998,516) translate(78.96296296296296 14.222222222222223)"/><path d="M714.38 646.1h-32.96c3.97 14.33-1.34 16.4-24.62 16.4v7.5H736v-7.5c-23.3 0-25.58-2.07-21.62-16.4" stroke="#000" stroke-opacity="0" fill="#7a7a7a"/><path d="M748 560H641.68c-3.6 0-6.48 3.2-6.48 6.8v74.95c0 3.54 2.88 6.73 6.48 6.73H748c3.6 0 7.2-3.2 7.2-6.73V566.8c0-3.6-3.6-6.8-7.2-6.8" stroke="#000" stroke-opacity="0" fill="#a0a1a2"/><path d="M748.02 560H641.74c-3.6 0-6.54 3.2-6.54 6.82v74.93c0 3.54 2.93 6.73 6.54 6.73h2.5L748 560z" stroke="#000" stroke-opacity="0" fill="#fff" fill-opacity=".2"/><path d="M745.6 569.57v69.34H644.8v-69.33h100.8z" stroke="#000" stroke-opacity="0" fill="#59b4d9"/><path d="M656.8 662.83H736V670h-79.2v-7.17z" stroke="#000" stroke-opacity="0" fill="#a0a1a2"/><path d="M696.44 565c0 .95-.76 1.7-1.7 1.7-.95 0-1.7-.75-1.7-1.7 0-.93.75-1.7 1.7-1.7.94 0 1.7.77 1.7 1.7" stroke="#000" stroke-opacity="0" fill="#b8d432"/><path d="M695.28 601.6c-.13 0-.2-.03-.34-.1l-21.14-12.15c-.17-.12-.3-.33-.3-.56 0-.24.13-.44.3-.54l21-12.1c.22-.1.44-.1.66 0l21.13 12.17c.17.1.3.33.3.56 0 .22-.13.43-.3.53l-21 12.06c-.1.07-.23.1-.32.1" stroke="#000" stroke-opacity="0" fill="#fff"/><path d="M692.23 631.13c-.13 0-.22-.04-.33-.07l-21.05-12.14c-.22-.12-.34-.3-.34-.53v-24.33c0-.23.13-.45.35-.57.18-.1.42-.1.62 0l21.08 12.14c.18.12.3.3.3.53v24.32c0 .22-.12.44-.3.56-.1.03-.23.07-.32.07" stroke="#000" stroke-opacity="0" fill="#fff" fill-opacity=".7"/><path d="M698.2 631.13c-.1 0-.22-.04-.34-.07-.2-.12-.3-.34-.3-.57v-24.15c0-.22.1-.45.3-.56l21.06-12.14c.2-.1.45-.1.63 0 .22.12.33.34.33.57v24.14c0 .26-.1.45-.33.56l-21.04 12.13c-.08.03-.2.07-.3.07" stroke="#000" stroke-opacity="0" fill="#fff" fill-opacity=".4"/><path d="M658.22 662.83h76.35c.95 0 1.43.48 1.43 1.43v4.3c0 .96-.48 1.44-1.43 1.44h-76.35c-.95 0-1.42-.48-1.42-1.43v-4.3c0-.96.47-1.44 1.42-1.44z" stroke="#000" stroke-opacity="0" stroke-width="0" fill-opacity="0"/><path d="M955.2 782c0-1.1.9-2 2-2h436c1.1 0 2 .9 2 2v216c0 1.1-.9 2-2 2h-436c-1.1 0-2-.9-2-2z" stroke="#d8d8d8" stroke-width="4" fill="#f2f2f2"/><use xlink:href="#l" transform="matrix(1,0,0,1,971.1999999999998,796) translate(0 14.222222222222223)"/><use xlink:href="#m" transform="matrix(1,0,0,1,971.1999999999998,796) translate(107.65432098765433 14.222222222222223)"/><use xlink:href="#n" transform="matrix(1,0,0,1,971.1999999999998,796) translate(197.4814814814815 14.222222222222223)"/><use xlink:href="#o" transform="matrix(1,0,0,1,971.1999999999998,796) translate(280.0987654320988 14.222222222222223)"/><path d="M1066.67 926.1h-32.95c3.97 14.33-1.34 16.4-24.62 16.4v7.5h79.2v-7.5c-23.3 0-25.6-2.07-21.63-16.4" stroke="#000" stroke-opacity="0" fill="#7a7a7a"/><path d="M1100.3 840H993.98c-3.6 0-6.48 3.2-6.48 6.8v74.95c0 3.54 2.88 6.73 6.48 6.73h106.32c3.6 0 7.2-3.2 7.2-6.73V846.8c0-3.6-3.6-6.8-7.2-6.8" stroke="#000" stroke-opacity="0" fill="#a0a1a2"/><path d="M1100.32 840H994.04c-3.6 0-6.54 3.2-6.54 6.82v74.93c0 3.54 2.93 6.73 6.54 6.73h2.48l103.8-88.48z" stroke="#000" stroke-opacity="0" fill="#fff" fill-opacity=".2"/><path d="M1097.9 849.57v69.34H997.1v-69.33h100.8z" stroke="#000" stroke-opacity="0" fill="#59b4d9"/><path d="M1009.1 942.83h79.2V950h-79.2v-7.17z" stroke="#000" stroke-opacity="0" fill="#a0a1a2"/><path d="M1048.74 845c0 .95-.76 1.7-1.7 1.7-.95 0-1.7-.75-1.7-1.7 0-.93.75-1.7 1.7-1.7.94 0 1.7.77 1.7 1.7" stroke="#000" stroke-opacity="0" fill="#b8d432"/><path d="M1047.58 881.6c-.13 0-.2-.03-.34-.1l-21.14-12.15c-.17-.12-.3-.33-.3-.56 0-.24.13-.44.3-.54l21-12.1c.22-.1.44-.1.66 0l21.13 12.17c.17.1.3.33.3.56 0 .22-.13.43-.3.53l-21 12.06c-.1.07-.23.1-.32.1" stroke="#000" stroke-opacity="0" fill="#fff"/><path d="M1044.53 911.13c-.13 0-.22-.04-.33-.07l-21.05-12.14c-.23-.12-.34-.3-.34-.53v-24.33c0-.23.12-.45.35-.57.18-.1.42-.1.62 0l21.08 12.14c.17.12.3.3.3.53v24.32c0 .22-.13.44-.3.56-.12.03-.23.07-.32.07" stroke="#000" stroke-opacity="0" fill="#fff" fill-opacity=".7"/><path d="M1050.5 911.13c-.1 0-.22-.04-.34-.07-.2-.12-.3-.34-.3-.57v-24.15c0-.22.1-.45.3-.56l21.06-12.14c.2-.1.45-.1.63 0 .22.12.33.34.33.57v24.14c0 .26-.1.45-.33.56l-21.04 12.13c-.08.03-.2.07-.3.07" stroke="#000" stroke-opacity="0" fill="#fff" fill-opacity=".4"/><path d="M1010.52 942.83h76.35c.95 0 1.43.48 1.43 1.43v4.3c0 .96-.48 1.44-1.43 1.44h-76.35c-.95 0-1.42-.48-1.42-1.43v-4.3c0-.96.47-1.44 1.42-1.44z" stroke="#000" stroke-opacity="0" stroke-width="0" fill-opacity="0"/><use xlink:href="#h" transform="matrix(1,0,0,1,957.4987654320985,959) translate(85 14.4)"/><path d="M1320.18 926.1h-32.95c3.96 14.33-1.35 16.4-24.63 16.4v7.5h79.2v-7.5c-23.28 0-25.58-2.07-21.62-16.4" stroke="#000" stroke-opacity="0" fill="#7a7a7a"/><path d="M1353.8 840h-106.32c-3.6 0-6.48 3.2-6.48 6.8v74.95c0 3.54 2.88 6.73 6.48 6.73h106.32c3.6 0 7.2-3.2 7.2-6.73V846.8c0-3.6-3.6-6.8-7.2-6.8" stroke="#000" stroke-opacity="0" fill="#a0a1a2"/><path d="M1353.83 840H1247.56c-3.6 0-6.55 3.2-6.55 6.82v74.93c0 3.54 2.94 6.73 6.55 6.73h2.48l103.8-88.48z" stroke="#000" stroke-opacity="0" fill="#fff" fill-opacity=".2"/><path d="M1351.4 849.57v69.34h-100.8v-69.33h100.8z" stroke="#000" stroke-opacity="0" fill="#59b4d9"/><path d="M1262.6 942.83h79.2V950h-79.2v-7.17z" stroke="#000" stroke-opacity="0" fill="#a0a1a2"/><path d="M1302.24 845c0 .95-.76 1.7-1.7 1.7s-1.7-.75-1.7-1.7c0-.93.76-1.7 1.7-1.7s1.7.77 1.7 1.7" stroke="#000" stroke-opacity="0" fill="#b8d432"/><path d="M1301.1 881.6c-.14 0-.23-.03-.36-.1l-21.14-12.15c-.17-.12-.3-.33-.3-.56 0-.24.13-.44.3-.54l21-12.1c.23-.1.44-.1.66 0l21.14 12.17c.17.1.3.33.3.56 0 .22-.13.43-.3.53l-21 12.06c-.1.07-.23.1-.3.1" stroke="#000" stroke-opacity="0" fill="#fff"/><path d="M1298.04 911.13c-.14 0-.23-.04-.34-.07l-21.05-12.14c-.22-.12-.33-.3-.33-.53v-24.33c0-.23.1-.45.33-.57.18-.1.43-.1.63 0l21.07 12.14c.18.12.3.3.3.53v24.32c0 .22-.12.44-.3.56-.1.03-.22.07-.3.07" stroke="#000" stroke-opacity="0" fill="#fff" fill-opacity=".7"/><path d="M1304 911.13c-.1 0-.22-.04-.33-.07-.2-.12-.32-.34-.32-.57v-24.15c0-.22.12-.45.32-.56l21.06-12.14c.2-.1.44-.1.62 0 .22.12.34.34.34.57v24.14c0 .26-.13.45-.35.56l-21.04 12.13c-.07.03-.2.07-.3.07" stroke="#000" stroke-opacity="0" fill="#fff" fill-opacity=".4"/><path d="M1264.03 942.83h76.34c.95 0 1.43.48 1.43 1.43v4.3c0 .96-.48 1.44-1.43 1.44h-76.34c-.95 0-1.43-.48-1.43-1.43v-4.3c0-.96.48-1.44 1.43-1.44z" stroke="#000" stroke-opacity="0" stroke-width="0" fill-opacity="0"/><use xlink:href="#p" transform="matrix(1,0,0,1,1211.0024691358021,959) translate(85 14.4)"/><path d="M1194.38 926.1h-32.96c3.97 14.33-1.34 16.4-24.62 16.4v7.5h79.2v-7.5c-23.3 0-25.58-2.07-21.62-16.4" stroke="#000" stroke-opacity="0" fill="#7a7a7a"/><path d="M1228 840h-106.32c-3.6 0-6.48 3.2-6.48 6.8v74.95c0 3.54 2.88 6.73 6.48 6.73H1228c3.6 0 7.2-3.2 7.2-6.73V846.8c0-3.6-3.6-6.8-7.2-6.8" stroke="#000" stroke-opacity="0" fill="#a0a1a2"/><path d="M1228.02 840h-106.28c-3.6 0-6.54 3.2-6.54 6.82v74.93c0 3.54 2.93 6.73 6.54 6.73h2.5L1228 840z" stroke="#000" stroke-opacity="0" fill="#fff" fill-opacity=".2"/><path d="M1225.6 849.57v69.34h-100.8v-69.33h100.8z" stroke="#000" stroke-opacity="0" fill="#59b4d9"/><path d="M1136.8 942.83h79.2V950h-79.2v-7.17z" stroke="#000" stroke-opacity="0" fill="#a0a1a2"/><path d="M1176.44 845c0 .95-.76 1.7-1.7 1.7-.95 0-1.7-.75-1.7-1.7 0-.93.75-1.7 1.7-1.7.94 0 1.7.77 1.7 1.7" stroke="#000" stroke-opacity="0" fill="#b8d432"/><path d="M1175.28 881.6c-.13 0-.2-.03-.34-.1l-21.14-12.15c-.17-.12-.3-.33-.3-.56 0-.24.13-.44.3-.54l21-12.1c.22-.1.44-.1.66 0l21.13 12.17c.17.1.3.33.3.56 0 .22-.13.43-.3.53l-21 12.06c-.1.07-.23.1-.32.1" stroke="#000" stroke-opacity="0" fill="#fff"/><path d="M1172.23 911.13c-.13 0-.22-.04-.33-.07l-21.05-12.14c-.22-.12-.34-.3-.34-.53v-24.33c0-.23.13-.45.35-.57.18-.1.42-.1.62 0l21.08 12.14c.18.12.3.3.3.53v24.32c0 .22-.12.44-.3.56-.1.03-.23.07-.32.07" stroke="#000" stroke-opacity="0" fill="#fff" fill-opacity=".7"/><path d="M1178.2 911.13c-.1 0-.22-.04-.34-.07-.2-.12-.3-.34-.3-.57v-24.15c0-.22.1-.45.3-.56l21.06-12.14c.2-.1.45-.1.63 0 .22.12.33.34.33.57v24.14c0 .26-.1.45-.33.56l-21.04 12.13c-.08.03-.2.07-.3.07" stroke="#000" stroke-opacity="0" fill="#fff" fill-opacity=".4"/><path d="M1138.22 942.83h76.35c.95 0 1.43.48 1.43 1.43v4.3c0 .96-.48 1.44-1.43 1.44h-76.35c-.95 0-1.42-.48-1.42-1.43v-4.3c0-.96.47-1.44 1.42-1.44z" stroke="#000" stroke-opacity="0" stroke-width="0" fill-opacity="0"/><use xlink:href="#i" transform="matrix(1,0,0,1,1085.1999999999998,959) translate(85 14.4)"/><path d="M1175.2 722.5v39.12" stroke="#666" fill="none"/><path d="M1175.7 722.5h-1v-.5h1z" fill="#666"/><path d="M1175.2 776.38l-4.64-14.26h9.28z" stroke="#666" fill="#666"/><path d="M475.2 782c0-1.1.9-2 2-2h436c1.1 0 2 .9 2 2v216c0 1.1-.9 2-2 2h-436c-1.1 0-2-.9-2-2z" stroke="#d8d8d8" stroke-width="4" fill="#f2f2f2"/><use xlink:href="#q" transform="matrix(1,0,0,1,491.1999999999998,796) translate(0 14.222222222222223)"/><use xlink:href="#r" transform="matrix(1,0,0,1,491.1999999999998,796) translate(131.2098765432099 14.222222222222223)"/><use xlink:href="#s" transform="matrix(1,0,0,1,491.1999999999998,796) translate(211.16049382716054 14.222222222222223)"/><use xlink:href="#t" transform="matrix(1,0,0,1,491.1999999999998,796) translate(285.23456790123464 14.222222222222223)"/><path d="M586.67 926.1h-32.95c3.97 14.33-1.34 16.4-24.62 16.4v7.5h79.2v-7.5c-23.3 0-25.6-2.07-21.63-16.4" stroke="#000" stroke-opacity="0" fill="#7a7a7a"/><path d="M620.3 840H513.98c-3.6 0-6.48 3.2-6.48 6.8v74.95c0 3.54 2.88 6.73 6.48 6.73H620.3c3.6 0 7.2-3.2 7.2-6.73V846.8c0-3.6-3.6-6.8-7.2-6.8" stroke="#000" stroke-opacity="0" fill="#a0a1a2"/><path d="M620.32 840H514.04c-3.6 0-6.54 3.2-6.54 6.82v74.93c0 3.54 2.93 6.73 6.54 6.73h2.48L620.32 840z" stroke="#000" stroke-opacity="0" fill="#fff" fill-opacity=".2"/><path d="M617.9 849.57v69.34H517.1v-69.33h100.8z" stroke="#000" stroke-opacity="0" fill="#59b4d9"/><path d="M529.1 942.83h79.2V950h-79.2v-7.17z" stroke="#000" stroke-opacity="0" fill="#a0a1a2"/><path d="M568.74 845c0 .95-.76 1.7-1.7 1.7-.95 0-1.7-.75-1.7-1.7 0-.93.75-1.7 1.7-1.7.94 0 1.7.77 1.7 1.7" stroke="#000" stroke-opacity="0" fill="#b8d432"/><path d="M567.58 881.6c-.13 0-.2-.03-.34-.1l-21.14-12.15c-.17-.12-.3-.33-.3-.56 0-.24.13-.44.3-.54l21-12.1c.22-.1.44-.1.66 0l21.13 12.17c.17.1.3.33.3.56 0 .22-.13.43-.3.53l-21 12.06c-.1.07-.23.1-.32.1" stroke="#000" stroke-opacity="0" fill="#fff"/><path d="M564.53 911.13c-.13 0-.22-.04-.33-.07l-21.05-12.14c-.23-.12-.34-.3-.34-.53v-24.33c0-.23.12-.45.35-.57.18-.1.42-.1.62 0l21.08 12.14c.17.12.3.3.3.53v24.32c0 .22-.13.44-.3.56-.12.03-.23.07-.32.07" stroke="#000" stroke-opacity="0" fill="#fff" fill-opacity=".7"/><path d="M570.5 911.13c-.1 0-.22-.04-.34-.07-.2-.12-.3-.34-.3-.57v-24.15c0-.22.1-.45.3-.56l21.06-12.14c.2-.1.45-.1.63 0 .22.12.33.34.33.57v24.14c0 .26-.1.45-.33.56l-21.04 12.13c-.08.03-.2.07-.3.07" stroke="#000" stroke-opacity="0" fill="#fff" fill-opacity=".4"/><path d="M530.52 942.83h76.35c.95 0 1.43.48 1.43 1.43v4.3c0 .96-.48 1.44-1.43 1.44h-76.35c-.95 0-1.42-.48-1.42-1.43v-4.3c0-.96.47-1.44 1.42-1.44z" stroke="#000" stroke-opacity="0" stroke-width="0" fill-opacity="0"/><use xlink:href="#h" transform="matrix(1,0,0,1,477.4987654320985,959) translate(85 14.4)"/><path d="M840.18 926.1h-32.95c3.96 14.33-1.35 16.4-24.63 16.4v7.5h79.2v-7.5c-23.28 0-25.58-2.07-21.62-16.4" stroke="#000" stroke-opacity="0" fill="#7a7a7a"/><path d="M873.8 840H767.48c-3.6 0-6.48 3.2-6.48 6.8v74.95c0 3.54 2.88 6.73 6.48 6.73H873.8c3.6 0 7.2-3.2 7.2-6.73V846.8c0-3.6-3.6-6.8-7.2-6.8" stroke="#000" stroke-opacity="0" fill="#a0a1a2"/><path d="M873.83 840H767.56c-3.6 0-6.55 3.2-6.55 6.82v74.93c0 3.54 2.94 6.73 6.55 6.73h2.48L873.83 840z" stroke="#000" stroke-opacity="0" fill="#fff" fill-opacity=".2"/><path d="M871.4 849.57v69.34H770.6v-69.33h100.8z" stroke="#000" stroke-opacity="0" fill="#59b4d9"/><path d="M782.6 942.83h79.2V950h-79.2v-7.17z" stroke="#000" stroke-opacity="0" fill="#a0a1a2"/><path d="M822.24 845c0 .95-.76 1.7-1.7 1.7s-1.7-.75-1.7-1.7c0-.93.76-1.7 1.7-1.7s1.7.77 1.7 1.7" stroke="#000" stroke-opacity="0" fill="#b8d432"/><path d="M821.1 881.6c-.14 0-.23-.03-.36-.1l-21.14-12.15c-.17-.12-.3-.33-.3-.56 0-.24.13-.44.3-.54l21-12.1c.23-.1.44-.1.66 0l21.14 12.17c.17.1.3.33.3.56 0 .22-.13.43-.3.53l-21 12.06c-.1.07-.23.1-.3.1" stroke="#000" stroke-opacity="0" fill="#fff"/><path d="M818.04 911.13c-.14 0-.23-.04-.34-.07l-21.05-12.14c-.22-.12-.33-.3-.33-.53v-24.33c0-.23.1-.45.33-.57.18-.1.43-.1.63 0l21.07 12.14c.18.12.3.3.3.53v24.32c0 .22-.12.44-.3.56-.1.03-.22.07-.3.07" stroke="#000" stroke-opacity="0" fill="#fff" fill-opacity=".7"/><path d="M824 911.13c-.1 0-.22-.04-.33-.07-.2-.12-.32-.34-.32-.57v-24.15c0-.22.12-.45.32-.56l21.06-12.14c.2-.1.44-.1.62 0 .22.12.34.34.34.57v24.14c0 .26-.13.45-.35.56l-21.04 12.13c-.07.03-.2.07-.3.07" stroke="#000" stroke-opacity="0" fill="#fff" fill-opacity=".4"/><path d="M784.03 942.83h76.34c.95 0 1.43.48 1.43 1.43v4.3c0 .96-.48 1.44-1.43 1.44h-76.34c-.95 0-1.43-.48-1.43-1.43v-4.3c0-.96.48-1.44 1.43-1.44z" stroke="#000" stroke-opacity="0" stroke-width="0" fill-opacity="0"/><use xlink:href="#p" transform="matrix(1,0,0,1,731.0024691358021,959) translate(85 14.4)"/><path d="M714.38 926.1h-32.96c3.97 14.33-1.34 16.4-24.62 16.4v7.5H736v-7.5c-23.3 0-25.58-2.07-21.62-16.4" stroke="#000" stroke-opacity="0" fill="#7a7a7a"/><path d="M748 840H641.68c-3.6 0-6.48 3.2-6.48 6.8v74.95c0 3.54 2.88 6.73 6.48 6.73H748c3.6 0 7.2-3.2 7.2-6.73V846.8c0-3.6-3.6-6.8-7.2-6.8" stroke="#000" stroke-opacity="0" fill="#a0a1a2"/><path d="M748.02 840H641.74c-3.6 0-6.54 3.2-6.54 6.82v74.93c0 3.54 2.93 6.73 6.54 6.73h2.5L748 840z" stroke="#000" stroke-opacity="0" fill="#fff" fill-opacity=".2"/><path d="M745.6 849.57v69.34H644.8v-69.33h100.8z" stroke="#000" stroke-opacity="0" fill="#59b4d9"/><path d="M656.8 942.83H736V950h-79.2v-7.17z" stroke="#000" stroke-opacity="0" fill="#a0a1a2"/><path d="M696.44 845c0 .95-.76 1.7-1.7 1.7-.95 0-1.7-.75-1.7-1.7 0-.93.75-1.7 1.7-1.7.94 0 1.7.77 1.7 1.7" stroke="#000" stroke-opacity="0" fill="#b8d432"/><path d="M695.28 881.6c-.13 0-.2-.03-.34-.1l-21.14-12.15c-.17-.12-.3-.33-.3-.56 0-.24.13-.44.3-.54l21-12.1c.22-.1.44-.1.66 0l21.13 12.17c.17.1.3.33.3.56 0 .22-.13.43-.3.53l-21 12.06c-.1.07-.23.1-.32.1" stroke="#000" stroke-opacity="0" fill="#fff"/><path d="M692.23 911.13c-.13 0-.22-.04-.33-.07l-21.05-12.14c-.22-.12-.34-.3-.34-.53v-24.33c0-.23.13-.45.35-.57.18-.1.42-.1.62 0l21.08 12.14c.18.12.3.3.3.53v24.32c0 .22-.12.44-.3.56-.1.03-.23.07-.32.07" stroke="#000" stroke-opacity="0" fill="#fff" fill-opacity=".7"/><path d="M698.2 911.13c-.1 0-.22-.04-.34-.07-.2-.12-.3-.34-.3-.57v-24.15c0-.22.1-.45.3-.56l21.06-12.14c.2-.1.45-.1.63 0 .22.12.33.34.33.57v24.14c0 .26-.1.45-.33.56l-21.04 12.13c-.08.03-.2.07-.3.07" stroke="#000" stroke-opacity="0" fill="#fff" fill-opacity=".4"/><path d="M658.22 942.83h76.35c.95 0 1.43.48 1.43 1.43v4.3c0 .96-.48 1.44-1.43 1.44h-76.35c-.95 0-1.42-.48-1.42-1.43v-4.3c0-.96.47-1.44 1.42-1.44z" stroke="#000" stroke-opacity="0" stroke-width="0" fill-opacity="0"/><g><use xlink:href="#i" transform="matrix(1,0,0,1,605.1999999999998,959) translate(85 14.4)"/></g><path d="M700 722.5v41.12M700 722.5v-.5" stroke="#666" fill="none"/><path d="M700 778.38l-4.64-14.26h9.28z" stroke="#666" fill="#666"/><defs><path d="M96-169c-40 0-48 33-48 73s9 75 48 75c24 0 41-14 43-38l32 2c-6 37-31 61-74 61-59 0-76-41-82-99-10-93 101-131 147-64 4 7 5 14 7 22l-32 3c-4-21-16-35-41-35" id="u"/><path d="M106-169C34-169 62-67 57 0H25v-261h32l-1 103c12-21 28-36 61-36 89 0 53 116 60 194h-32v-121c2-32-8-49-39-48" id="v"/><path d="M100-194c63 0 86 42 84 106H49c0 40 14 67 53 68 26 1 43-12 49-29l28 8c-11 28-37 45-77 45C44 4 14-33 15-96c1-61 26-98 85-98zm52 81c6-60-76-77-97-28-3 7-6 17-6 28h103" id="w"/><path d="M101-234c-31-9-42 10-38 44h38v23H63V0H32v-167H5v-23h27c-7-52 17-82 69-68v24" id="x"/><path d="M16-82v-28h88v28H16" id="y"/><path d="M108 0H70L1-190h34L89-25l56-165h34" id="z"/><path d="M117-194c89-4 53 116 60 194h-32v-121c0-31-8-49-39-48C34-167 62-67 57 0H25l-1-190h30c1 10-1 24 2 32 11-22 29-35 61-36" id="A"/><path d="M59-47c-2 24 18 29 38 22v24C64 9 27 4 27-40v-127H5v-23h24l9-43h21v43h35v23H59v120" id="B"/><g id="a"><use transform="matrix(0.08641975308641976,0,0,0.08641975308641976,0,0)" xlink:href="#u"/><use transform="matrix(0.08641975308641976,0,0,0.08641975308641976,15.555555555555557,0)" xlink:href="#v"/><use transform="matrix(0.08641975308641976,0,0,0.08641975308641976,32.839506172839506,0)" xlink:href="#w"/><use transform="matrix(0.08641975308641976,0,0,0.08641975308641976,50.123456790123456,0)" xlink:href="#x"/><use transform="matrix(0.08641975308641976,0,0,0.08641975308641976,58.76543209876543,0)" xlink:href="#y"/><use transform="matrix(0.08641975308641976,0,0,0.08641975308641976,69.04938271604938,0)" xlink:href="#z"/><use transform="matrix(0.08641975308641976,0,0,0.08641975308641976,84.60493827160494,0)" xlink:href="#A"/><use transform="matrix(0.08641975308641976,0,0,0.08641975308641976,101.88888888888889,0)" xlink:href="#w"/><use transform="matrix(0.08641975308641976,0,0,0.08641975308641976,119.17283950617283,0)" xlink:href="#B"/></g><use transform="matrix(0.08641975308641976,0,0,0.08641975308641976,0,0)" xlink:href="#y" id="b"/><path d="M27 0v-27h64v-190l-56 39v-29l58-41h29v221h61V0H27" id="C"/><path d="M101-251c68 0 85 55 85 127S166 4 100 4C33 4 14-52 14-124c0-73 17-127 87-127zm-1 229c47 0 54-49 54-102s-4-102-53-102c-51 0-55 48-55 102 0 53 5 102 54 102" id="D"/><path d="M33 0v-38h34V0H33" id="E"/><path d="M0 4l72-265h28L28 4H0" id="F"/><path d="M101-251c82-7 93 87 43 132L82-64C71-53 59-42 53-27h129V0H18c2-99 128-94 128-182 0-28-16-43-45-43s-46 15-49 41l-32-3c6-41 34-60 81-64" id="G"/><path d="M155-56V0h-30v-56H8v-25l114-167h33v167h35v25h-35zm-30-156c-27 46-58 90-88 131h88v-131" id="H"/><g id="c"><use transform="matrix(0.08641975308641976,0,0,0.08641975308641976,0,0)" xlink:href="#C"/><use transform="matrix(0.08641975308641976,0,0,0.08641975308641976,17.283950617283953,0)" xlink:href="#D"/><use transform="matrix(0.08641975308641976,0,0,0.08641975308641976,34.567901234567906,0)" xlink:href="#E"/><use transform="matrix(0.08641975308641976,0,0,0.08641975308641976,43.20987654320988,0)" xlink:href="#C"/><use transform="matrix(0.08641975308641976,0,0,0.08641975308641976,60.49382716049384,0)" xlink:href="#E"/><use transform="matrix(0.08641975308641976,0,0,0.08641975308641976,69.13580246913581,0)" xlink:href="#D"/><use transform="matrix(0.08641975308641976,0,0,0.08641975308641976,86.41975308641976,0)" xlink:href="#E"/><use transform="matrix(0.08641975308641976,0,0,0.08641975308641976,95.06172839506173,0)" xlink:href="#D"/><use transform="matrix(0.08641975308641976,0,0,0.08641975308641976,112.34567901234568,0)" xlink:href="#F"/><use transform="matrix(0.08641975308641976,0,0,0.08641975308641976,120.98765432098767,0)" xlink:href="#G"/><use transform="matrix(0.08641975308641976,0,0,0.08641975308641976,138.27160493827162,0)" xlink:href="#H"/></g><path d="M30 0v-248h33v221h125V0H30" id="I"/><path d="M160-131c35 5 61 23 61 61C221 17 115-2 30 0v-248c76 3 177-17 177 60 0 33-19 50-47 57zm-97-11c50-1 110 9 110-42 0-47-63-36-110-37v79zm0 115c55-2 124 14 124-45 0-56-70-42-124-44v89" id="J"/><g id="d"><use transform="matrix(0.04938271604938272,0,0,0.04938271604938272,0,0)" xlink:href="#u"/><use transform="matrix(0.04938271604938272,0,0,0.04938271604938272,8.88888888888889,0)" xlink:href="#v"/><use transform="matrix(0.04938271604938272,0,0,0.04938271604938272,18.765432098765434,0)" xlink:href="#w"/><use transform="matrix(0.04938271604938272,0,0,0.04938271604938272,28.641975308641978,0)" xlink:href="#x"/><use transform="matrix(0.04938271604938272,0,0,0.04938271604938272,33.580246913580254,0)" xlink:href="#I"/><use transform="matrix(0.04938271604938272,0,0,0.04938271604938272,43.4567901234568,0)" xlink:href="#J"/></g><path d="M63-220v92h138v28H63V0H30v-248h175v28H63" id="K"/><path d="M114-163C36-179 61-72 57 0H25l-1-190h30c1 12-1 29 2 39 6-27 23-49 58-41v29" id="L"/><path d="M100-194c62-1 85 37 85 99 1 63-27 99-86 99S16-35 15-95c0-66 28-99 85-99zM99-20c44 1 53-31 53-75 0-43-8-75-51-75s-53 32-53 75 10 74 51 75" id="M"/><path d="M85-194c31 0 48 13 60 33l-1-100h32l1 261h-30c-2-10 0-23-3-31C134-8 116 4 85 4 32 4 16-35 15-94c0-66 23-100 70-100zm9 24c-40 0-46 34-46 75 0 40 6 74 45 74 42 0 51-32 51-76 0-42-9-74-50-73" id="N"/><g id="e"><use transform="matrix(0.04938271604938272,0,0,0.04938271604938272,0,0)" xlink:href="#u"/><use transform="matrix(0.04938271604938272,0,0,0.04938271604938272,8.88888888888889,0)" xlink:href="#v"/><use transform="matrix(0.04938271604938272,0,0,0.04938271604938272,18.765432098765434,0)" xlink:href="#w"/><use transform="matrix(0.04938271604938272,0,0,0.04938271604938272,28.641975308641978,0)" xlink:href="#x"/><use transform="matrix(0.04938271604938272,0,0,0.04938271604938272,33.580246913580254,0)" xlink:href="#K"/><use transform="matrix(0.04938271604938272,0,0,0.04938271604938272,44.39506172839507,0)" xlink:href="#L"/><use transform="matrix(0.04938271604938272,0,0,0.04938271604938272,50.271604938271615,0)" xlink:href="#M"/><use transform="matrix(0.04938271604938272,0,0,0.04938271604938272,60.14814814814817,0)" xlink:href="#A"/><use transform="matrix(0.04938271604938272,0,0,0.04938271604938272,70.02469135802471,0)" xlink:href="#B"/><use transform="matrix(0.04938271604938272,0,0,0.04938271604938272,74.96296296296299,0)" xlink:href="#w"/><use transform="matrix(0.04938271604938272,0,0,0.04938271604938272,84.83950617283953,0)" xlink:href="#A"/><use transform="matrix(0.04938271604938272,0,0,0.04938271604938272,94.71604938271608,0)" xlink:href="#N"/></g><path d="M87 75C49 33 22-17 22-94c0-76 28-126 65-167h31c-38 41-64 92-64 168S80 34 118 75H87" id="O"/><path d="M68-38c1 34 0 65-14 84H32c9-13 17-26 17-46H33v-38h35" id="P"/><g id="f"><use transform="matrix(0.04938271604938272,0,0,0.04938271604938272,0,0)" xlink:href="#O"/><use transform="matrix(0.04938271604938272,0,0,0.04938271604938272,5.8765432098765435,0)" xlink:href="#C"/><use transform="matrix(0.04938271604938272,0,0,0.04938271604938272,15.753086419753087,0)" xlink:href="#D"/><use transform="matrix(0.04938271604938272,0,0,0.04938271604938272,25.629629629629633,0)" xlink:href="#E"/><use transform="matrix(0.04938271604938272,0,0,0.04938271604938272,30.567901234567906,0)" xlink:href="#C"/><use transform="matrix(0.04938271604938272,0,0,0.04938271604938272,40.44444444444445,0)" xlink:href="#E"/><use transform="matrix(0.04938271604938272,0,0,0.04938271604938272,45.38271604938272,0)" xlink:href="#D"/><use transform="matrix(0.04938271604938272,0,0,0.04938271604938272,55.25925925925927,0)" xlink:href="#E"/><use transform="matrix(0.04938271604938272,0,0,0.04938271604938272,60.19753086419754,0)" xlink:href="#G"/><use transform="matrix(0.04938271604938272,0,0,0.04938271604938272,70.07407407407408,0)" xlink:href="#D"/><use transform="matrix(0.04938271604938272,0,0,0.04938271604938272,79.95061728395062,0)" xlink:href="#P"/></g><path d="M33-261c38 41 65 92 65 168S71 34 33 75H2C39 34 66-17 66-93S39-220 2-261h31" id="Q"/><g id="g"><use transform="matrix(0.04938271604938272,0,0,0.04938271604938272,0,0)" xlink:href="#C"/><use transform="matrix(0.04938271604938272,0,0,0.04938271604938272,9.876543209876544,0)" xlink:href="#D"/><use transform="matrix(0.04938271604938272,0,0,0.04938271604938272,19.75308641975309,0)" xlink:href="#E"/><use transform="matrix(0.04938271604938272,0,0,0.04938271604938272,24.69135802469136,0)" xlink:href="#C"/><use transform="matrix(0.04938271604938272,0,0,0.04938271604938272,34.567901234567906,0)" xlink:href="#E"/><use transform="matrix(0.04938271604938272,0,0,0.04938271604938272,39.50617283950618,0)" xlink:href="#D"/><use transform="matrix(0.04938271604938272,0,0,0.04938271604938272,49.38271604938272,0)" xlink:href="#E"/><use transform="matrix(0.04938271604938272,0,0,0.04938271604938272,54.320987654320994,0)" xlink:href="#G"/><use transform="matrix(0.04938271604938272,0,0,0.04938271604938272,64.19753086419755,0)" xlink:href="#C"/><use transform="matrix(0.04938271604938272,0,0,0.04938271604938272,74.07407407407409,0)" xlink:href="#Q"/></g><use transform="matrix(0.05,0,0,0.05,0,0)" xlink:href="#D" id="h"/><use transform="matrix(0.05,0,0,0.05,0,0)" xlink:href="#C" id="i"/><path d="M141-36C126-15 110 5 73 4 37 3 15-17 15-53c-1-64 63-63 125-63 3-35-9-54-41-54-24 1-41 7-42 31l-33-3c5-37 33-52 76-52 45 0 72 20 72 64v82c-1 20 7 32 28 27v20c-31 9-61-2-59-35zM48-53c0 20 12 33 32 33 41-3 63-29 60-74-43 2-92-5-92 41" id="R"/><path d="M84 4C-5 8 30-112 23-190h32v120c0 31 7 50 39 49 72-2 45-101 50-169h31l1 190h-30c-1-10 1-25-2-33-11 22-28 36-60 37" id="S"/><path d="M210-169c-67 3-38 105-44 169h-31v-121c0-29-5-50-35-48C34-165 62-65 56 0H25l-1-190h30c1 10-1 24 2 32 10-44 99-50 107 0 11-21 27-35 58-36 85-2 47 119 55 194h-31v-121c0-29-5-49-35-48" id="T"/><g id="j"><use transform="matrix(0.04938271604938272,0,0,0.04938271604938272,0,0)" xlink:href="#R"/><use transform="matrix(0.04938271604938272,0,0,0.04938271604938272,9.876543209876544,0)" xlink:href="#S"/><use transform="matrix(0.04938271604938272,0,0,0.04938271604938272,19.75308641975309,0)" xlink:href="#B"/><use transform="matrix(0.04938271604938272,0,0,0.04938271604938272,24.69135802469136,0)" xlink:href="#M"/><use transform="matrix(0.04938271604938272,0,0,0.04938271604938272,34.567901234567906,0)" xlink:href="#T"/><use transform="matrix(0.04938271604938272,0,0,0.04938271604938272,49.33333333333334,0)" xlink:href="#R"/><use transform="matrix(0.04938271604938272,0,0,0.04938271604938272,59.209876543209894,0)" xlink:href="#B"/><use transform="matrix(0.04938271604938272,0,0,0.04938271604938272,64.14814814814815,0)" xlink:href="#w"/></g><path d="M64 0c3-98 48-159 88-221H18v-27h164v26C143-157 98-101 97 0H64" id="U"/><g id="k"><use transform="matrix(0.04938271604938272,0,0,0.04938271604938272,0,0)" xlink:href="#O"/><use transform="matrix(0.04938271604938272,0,0,0.04938271604938272,5.8765432098765435,0)" xlink:href="#C"/><use transform="matrix(0.04938271604938272,0,0,0.04938271604938272,15.753086419753087,0)" xlink:href="#D"/><use transform="matrix(0.04938271604938272,0,0,0.04938271604938272,25.629629629629633,0)" xlink:href="#E"/><use transform="matrix(0.04938271604938272,0,0,0.04938271604938272,30.567901234567906,0)" xlink:href="#C"/><use transform="matrix(0.04938271604938272,0,0,0.04938271604938272,40.44444444444445,0)" xlink:href="#E"/><use transform="matrix(0.04938271604938272,0,0,0.04938271604938272,45.38271604938272,0)" xlink:href="#D"/><use transform="matrix(0.04938271604938272,0,0,0.04938271604938272,55.25925925925927,0)" xlink:href="#E"/><use transform="matrix(0.04938271604938272,0,0,0.04938271604938272,60.19753086419754,0)" xlink:href="#U"/><use transform="matrix(0.04938271604938272,0,0,0.04938271604938272,70.07407407407408,0)" xlink:href="#Q"/></g><path d="M143 0L79-87 56-68V0H24v-261h32v163l83-92h37l-77 82L181 0h-38" id="V"/><g id="l"><use transform="matrix(0.04938271604938272,0,0,0.04938271604938272,0,0)" xlink:href="#u"/><use transform="matrix(0.04938271604938272,0,0,0.04938271604938272,8.88888888888889,0)" xlink:href="#v"/><use transform="matrix(0.04938271604938272,0,0,0.04938271604938272,18.765432098765434,0)" xlink:href="#w"/><use transform="matrix(0.04938271604938272,0,0,0.04938271604938272,28.641975308641978,0)" xlink:href="#x"/><use transform="matrix(0.04938271604938272,0,0,0.04938271604938272,33.580246913580254,0)" xlink:href="#J"/><use transform="matrix(0.04938271604938272,0,0,0.04938271604938272,45.43209876543211,0)" xlink:href="#R"/><use transform="matrix(0.04938271604938272,0,0,0.04938271604938272,55.30864197530866,0)" xlink:href="#u"/><use transform="matrix(0.04938271604938272,0,0,0.04938271604938272,64.19753086419755,0)" xlink:href="#V"/><use transform="matrix(0.04938271604938272,0,0,0.04938271604938272,73.08641975308643,0)" xlink:href="#w"/><use transform="matrix(0.04938271604938272,0,0,0.04938271604938272,82.96296296296298,0)" xlink:href="#A"/><use transform="matrix(0.04938271604938272,0,0,0.04938271604938272,92.83950617283952,0)" xlink:href="#N"/></g><g id="m"><use transform="matrix(0.04938271604938272,0,0,0.04938271604938272,0,0)" xlink:href="#O"/><use transform="matrix(0.04938271604938272,0,0,0.04938271604938272,5.8765432098765435,0)" xlink:href="#C"/><use transform="matrix(0.04938271604938272,0,0,0.04938271604938272,15.753086419753087,0)" xlink:href="#D"/><use transform="matrix(0.04938271604938272,0,0,0.04938271604938272,25.629629629629633,0)" xlink:href="#E"/><use transform="matrix(0.04938271604938272,0,0,0.04938271604938272,30.567901234567906,0)" xlink:href="#C"/><use transform="matrix(0.04938271604938272,0,0,0.04938271604938272,40.44444444444445,0)" xlink:href="#E"/><use transform="matrix(0.04938271604938272,0,0,0.04938271604938272,45.38271604938272,0)" xlink:href="#D"/><use transform="matrix(0.04938271604938272,0,0,0.04938271604938272,55.25925925925927,0)" xlink:href="#E"/><use transform="matrix(0.04938271604938272,0,0,0.04938271604938272,60.19753086419754,0)" xlink:href="#C"/><use transform="matrix(0.04938271604938272,0,0,0.04938271604938272,70.07407407407408,0)" xlink:href="#D"/><use transform="matrix(0.04938271604938272,0,0,0.04938271604938272,79.95061728395062,0)" xlink:href="#P"/></g><g id="n"><use transform="matrix(0.04938271604938272,0,0,0.04938271604938272,0,0)" xlink:href="#C"/><use transform="matrix(0.04938271604938272,0,0,0.04938271604938272,9.876543209876544,0)" xlink:href="#D"/><use transform="matrix(0.04938271604938272,0,0,0.04938271604938272,19.75308641975309,0)" xlink:href="#E"/><use transform="matrix(0.04938271604938272,0,0,0.04938271604938272,24.69135802469136,0)" xlink:href="#C"/><use transform="matrix(0.04938271604938272,0,0,0.04938271604938272,34.567901234567906,0)" xlink:href="#E"/><use transform="matrix(0.04938271604938272,0,0,0.04938271604938272,39.50617283950618,0)" xlink:href="#D"/><use transform="matrix(0.04938271604938272,0,0,0.04938271604938272,49.38271604938272,0)" xlink:href="#E"/><use transform="matrix(0.04938271604938272,0,0,0.04938271604938272,54.320987654320994,0)" xlink:href="#C"/><use transform="matrix(0.04938271604938272,0,0,0.04938271604938272,62.8641975308642,0)" xlink:href="#C"/><use transform="matrix(0.04938271604938272,0,0,0.04938271604938272,72.74074074074075,0)" xlink:href="#P"/></g><g id="o"><use transform="matrix(0.04938271604938272,0,0,0.04938271604938272,0,0)" xlink:href="#C"/><use transform="matrix(0.04938271604938272,0,0,0.04938271604938272,9.876543209876544,0)" xlink:href="#D"/><use transform="matrix(0.04938271604938272,0,0,0.04938271604938272,19.75308641975309,0)" xlink:href="#E"/><use transform="matrix(0.04938271604938272,0,0,0.04938271604938272,24.69135802469136,0)" xlink:href="#C"/><use transform="matrix(0.04938271604938272,0,0,0.04938271604938272,34.567901234567906,0)" xlink:href="#E"/><use transform="matrix(0.04938271604938272,0,0,0.04938271604938272,39.50617283950618,0)" xlink:href="#D"/><use transform="matrix(0.04938271604938272,0,0,0.04938271604938272,49.38271604938272,0)" xlink:href="#E"/><use transform="matrix(0.04938271604938272,0,0,0.04938271604938272,54.320987654320994,0)" xlink:href="#C"/><use transform="matrix(0.04938271604938272,0,0,0.04938271604938272,64.19753086419755,0)" xlink:href="#G"/><use transform="matrix(0.04938271604938272,0,0,0.04938271604938272,74.07407407407409,0)" xlink:href="#Q"/></g><use transform="matrix(0.05,0,0,0.05,0,0)" xlink:href="#G" id="p"/><path d="M30 0v-248h187v28H63v79h144v27H63v87h162V0H30" id="W"/><path d="M24 0v-261h32V0H24" id="X"/><path d="M135-143c-3-34-86-38-87 0 15 53 115 12 119 90S17 21 10-45l28-5c4 36 97 45 98 0-10-56-113-15-118-90-4-57 82-63 122-42 12 7 21 19 24 35" id="Y"/><path d="M24-231v-30h32v30H24zM24 0v-190h32V0H24" id="Z"/><g id="q"><use transform="matrix(0.04938271604938272,0,0,0.04938271604938272,0,0)" xlink:href="#R"/><use transform="matrix(0.04938271604938272,0,0,0.04938271604938272,9.876543209876544,0)" xlink:href="#S"/><use transform="matrix(0.04938271604938272,0,0,0.04938271604938272,19.75308641975309,0)" xlink:href="#B"/><use transform="matrix(0.04938271604938272,0,0,0.04938271604938272,24.69135802469136,0)" xlink:href="#M"/><use transform="matrix(0.04938271604938272,0,0,0.04938271604938272,34.567901234567906,0)" xlink:href="#T"/><use transform="matrix(0.04938271604938272,0,0,0.04938271604938272,49.33333333333334,0)" xlink:href="#R"/><use transform="matrix(0.04938271604938272,0,0,0.04938271604938272,59.209876543209894,0)" xlink:href="#B"/><use transform="matrix(0.04938271604938272,0,0,0.04938271604938272,64.14814814814815,0)" xlink:href="#w"/><use transform="matrix(0.04938271604938272,0,0,0.04938271604938272,74.0246913580247,0)" xlink:href="#W"/><use transform="matrix(0.04938271604938272,0,0,0.04938271604938272,85.87654320987654,0)" xlink:href="#X"/><use transform="matrix(0.04938271604938272,0,0,0.04938271604938272,89.77777777777779,0)" xlink:href="#R"/><use transform="matrix(0.04938271604938272,0,0,0.04938271604938272,99.65432098765433,0)" xlink:href="#Y"/><use transform="matrix(0.04938271604938272,0,0,0.04938271604938272,108.54320987654322,0)" xlink:href="#B"/><use transform="matrix(0.04938271604938272,0,0,0.04938271604938272,113.4814814814815,0)" xlink:href="#Z"/><use transform="matrix(0.04938271604938272,0,0,0.04938271604938272,117.38271604938272,0)" xlink:href="#u"/></g><g id="r"><use transform="matrix(0.04938271604938272,0,0,0.04938271604938272,0,0)" xlink:href="#O"/><use transform="matrix(0.04938271604938272,0,0,0.04938271604938272,5.8765432098765435,0)" xlink:href="#C"/><use transform="matrix(0.04938271604938272,0,0,0.04938271604938272,15.753086419753087,0)" xlink:href="#D"/><use transform="matrix(0.04938271604938272,0,0,0.04938271604938272,25.629629629629633,0)" xlink:href="#E"/><use transform="matrix(0.04938271604938272,0,0,0.04938271604938272,30.567901234567906,0)" xlink:href="#C"/><use transform="matrix(0.04938271604938272,0,0,0.04938271604938272,40.44444444444445,0)" xlink:href="#E"/><use transform="matrix(0.04938271604938272,0,0,0.04938271604938272,45.38271604938272,0)" xlink:href="#D"/><use transform="matrix(0.04938271604938272,0,0,0.04938271604938272,55.25925925925927,0)" xlink:href="#E"/><use transform="matrix(0.04938271604938272,0,0,0.04938271604938272,60.19753086419754,0)" xlink:href="#H"/><use transform="matrix(0.04938271604938272,0,0,0.04938271604938272,70.07407407407408,0)" xlink:href="#P"/></g><path d="M54-142c48-35 137-8 131 61C196 18 31 33 14-55l32-4c7 23 22 37 52 37 35-1 51-22 54-58 4-55-73-65-99-34H22l8-134h141v27H59" id="aa"/><g id="s"><use transform="matrix(0.04938271604938272,0,0,0.04938271604938272,0,0)" xlink:href="#C"/><use transform="matrix(0.04938271604938272,0,0,0.04938271604938272,9.876543209876544,0)" xlink:href="#D"/><use transform="matrix(0.04938271604938272,0,0,0.04938271604938272,19.75308641975309,0)" xlink:href="#E"/><use transform="matrix(0.04938271604938272,0,0,0.04938271604938272,24.69135802469136,0)" xlink:href="#C"/><use transform="matrix(0.04938271604938272,0,0,0.04938271604938272,34.567901234567906,0)" xlink:href="#E"/><use transform="matrix(0.04938271604938272,0,0,0.04938271604938272,39.50617283950618,0)" xlink:href="#D"/><use transform="matrix(0.04938271604938272,0,0,0.04938271604938272,49.38271604938272,0)" xlink:href="#E"/><use transform="matrix(0.04938271604938272,0,0,0.04938271604938272,54.320987654320994,0)" xlink:href="#aa"/><use transform="matrix(0.04938271604938272,0,0,0.04938271604938272,64.19753086419755,0)" xlink:href="#P"/></g><path d="M110-160c48 1 74 30 74 79 0 53-28 85-80 85-65 0-83-55-86-122-5-90 50-162 133-122 14 7 22 21 27 39l-31 6c-5-40-67-38-82-6-9 19-15 44-15 74 11-20 30-34 60-33zm-7 138c34 0 49-23 49-58s-16-56-50-56c-29 0-50 16-49 49 1 36 15 65 50 65" id="ab"/><g id="t"><use transform="matrix(0.04938271604938272,0,0,0.04938271604938272,0,0)" xlink:href="#C"/><use transform="matrix(0.04938271604938272,0,0,0.04938271604938272,9.876543209876544,0)" xlink:href="#D"/><use transform="matrix(0.04938271604938272,0,0,0.04938271604938272,19.75308641975309,0)" xlink:href="#E"/><use transform="matrix(0.04938271604938272,0,0,0.04938271604938272,24.69135802469136,0)" xlink:href="#C"/><use transform="matrix(0.04938271604938272,0,0,0.04938271604938272,34.567901234567906,0)" xlink:href="#E"/><use transform="matrix(0.04938271604938272,0,0,0.04938271604938272,39.50617283950618,0)" xlink:href="#D"/><use transform="matrix(0.04938271604938272,0,0,0.04938271604938272,49.38271604938272,0)" xlink:href="#E"/><use transform="matrix(0.04938271604938272,0,0,0.04938271604938272,54.320987654320994,0)" xlink:href="#ab"/><use transform="matrix(0.04938271604938272,0,0,0.04938271604938272,64.19753086419755,0)" xlink:href="#Q"/></g></defs></g></svg>